<svg xmlns="http://www.w3.org/2000/svg" fill="#767676" viewBox="0 0 15 15">
  <g stroke="#fff" stroke-linecap="round" stroke-linejoin="round" clip-path="url(#eye_a)">
    <path d="M13.343 6.354c.165.206.257.475.257.753 0 .279-.091.548-.257.754-1.05 1.272-3.44 3.747-6.23 3.747S1.933 9.133.883 7.86a1.2 1.2 0 0 1-.258-.754c0-.278.092-.547.258-.753 1.05-1.272 3.44-3.747 6.23-3.747s5.18 2.475 6.23 3.747"/>
    <path d="M7.112 9.107a2 2 0 1 0 0-4 2 2 0 0 0 0 4"/>
  </g>
  <defs>
    <clipPath id="eye_a">
      <path d="M.112.107h14v14h-14z"/>
    </clipPath>
  </defs>
</svg>
