<svg width="162" height="48" viewBox="0 0 162 48" fill="none" xmlns="http://www.w3.org/2000/svg">
<path d="M13.1497 23.9364L16.6917 19.2251L14.029 18.8567L12.5312 20.6754C12.2053 21.0714 11.6617 20.8335 11.3784 20.6303L3.70406 15.1152C3.41364 14.9066 3.65879 14.5404 3.95998 14.4903L11.6496 13.2152L12.5683 11.6384L0.562257 13.6297C0.114964 13.7028 -0.225213 14.2176 0.183087 14.5549L11.4434 23.8687C11.8414 24.1979 12.6943 24.5442 13.1497 23.9364Z" fill="#FFC20E"/>
<path d="M20.6388 0.55916L29.8787 17.5202C30.8212 19.2491 29.8742 21.0498 28.2585 20.8259L17.5477 19.3439L18.6099 17.5179L26.3393 18.5239C27.1429 18.635 27.0587 18.0787 26.7198 17.4551L20.2014 3.7637C20.0638 3.51175 19.5986 3.38035 19.4408 3.65263L12.2249 16.0364C12.0112 16.4035 11.9516 16.6478 12.4159 16.7119L15.468 17.1093L14.0285 18.8567L10.1534 18.3203C9.43094 18.2201 9.11496 17.5649 9.54299 16.8302L18.838 0.877041C19.2561 0.160003 20.0548 -0.511881 20.6388 0.55916Z" fill="#00ADEF"/>
<path d="M18.0319 17.4429L18.7813 16.4455L22.0867 12.0493C22.8222 11.0718 22.668 9.96415 21.669 10.129L15.8389 11.0962L15.0958 12.644L18.2224 12.1252C18.8965 12.0137 19.03 12.7849 18.5043 13.4234L16.3857 15.9953L15.4678 17.1092L12.9329 20.1874L15.0183 21.4503L18.0319 17.4429Z" fill="#FFC20E"/>
<path d="M41.5202 11.3684H41.1035C40.8122 10.4748 40.5608 9.76429 40.3462 9.23703C40.1316 8.70976 39.9199 8.30612 39.7112 8.02684C39.504 7.74757 39.2724 7.56437 39.0202 7.47723C38.7665 7.39084 38.4575 7.34691 38.0917 7.34691C37.5991 7.34691 37.1544 7.44893 36.7562 7.65448C36.3587 7.85928 36.0172 8.20707 35.7333 8.6971C35.4494 9.18787 35.2311 9.83951 35.0792 10.652C34.928 11.4645 34.8513 12.4736 34.8513 13.6771C34.8513 14.894 34.9206 15.9053 35.06 16.7119C35.1986 17.5191 35.411 18.1671 35.6942 18.6571C35.9789 19.1479 36.3314 19.4949 36.7547 19.6997C37.1773 19.9045 37.6795 20.0065 38.2606 20.0065C38.6515 20.0065 38.9863 19.9291 39.2643 19.7734C39.5423 19.6185 39.7916 19.3638 40.0128 19.0108C40.2333 18.6563 40.4354 18.1887 40.6183 17.6048C40.8012 17.0209 41.0003 16.2956 41.2156 15.4265H41.6316V19.6334C41.1013 19.9067 40.549 20.1056 39.9745 20.23C39.4 20.3536 38.8285 20.4161 38.2606 20.4161C37.4516 20.4161 36.6979 20.2575 35.9973 19.941C35.296 19.6245 34.6876 19.1747 34.1691 18.5908C33.6507 18.0069 33.2436 17.3002 32.9479 16.4676C32.6507 15.6365 32.5024 14.7056 32.5024 13.6749C32.5024 12.6449 32.6507 11.714 32.9479 10.8821C33.2436 10.0503 33.6514 9.34352 34.1691 8.75966C34.6868 8.17653 35.2952 7.72597 35.9973 7.40946C36.6979 7.09295 37.4523 6.93433 38.2606 6.93433C38.9051 6.93433 39.4922 6.99986 40.0224 7.13019C40.5527 7.26052 41.0519 7.43106 41.5187 7.64256V11.3684H41.5202Z" fill="#323232"/>
<path d="M43.7758 14.0494V11.0333C44.2323 10.8352 44.6777 10.6736 45.1113 10.5492C45.5442 10.4248 45.9948 10.363 46.4639 10.363C47.014 10.363 47.4889 10.4345 47.8872 10.5775C48.2854 10.7205 48.6158 10.9037 48.8798 11.1264C49.1438 11.3491 49.337 11.6045 49.4594 11.8897C49.5826 12.1757 49.6438 12.4609 49.6438 12.7454V19.7094H50.4875V20.119H48.0988V18.4806H48.0634C47.8525 19.0644 47.5125 19.5329 47.0442 19.8866C46.5752 20.2404 46.025 20.4176 45.393 20.4176C44.5966 20.4176 43.9528 20.1905 43.4609 19.7377C42.969 19.2849 42.7227 18.6489 42.7227 17.8289C42.7227 17.2831 42.8134 16.8459 42.9948 16.516C43.1762 16.1876 43.4196 15.9269 43.7241 15.734C44.028 15.5419 44.3709 15.3989 44.7522 15.3058C45.1327 15.2127 45.5221 15.1293 45.9203 15.0548C46.3186 14.9796 46.7072 14.8962 47.0885 14.8031C47.469 14.71 47.806 14.57 48.0988 14.3838V12.4297C48.0988 11.8339 47.9602 11.4094 47.6858 11.1547C47.41 10.9 47.0383 10.7726 46.5693 10.7726C46.2647 10.7726 46.0073 10.8218 45.7964 10.9216C45.5855 11.0214 45.3952 11.1919 45.2256 11.434C45.056 11.6752 44.8893 12.0104 44.7249 12.4393C44.5604 12.8683 44.3731 13.4045 44.1622 14.0494H43.7758ZM48.0981 14.8694C47.6062 15.1174 47.1401 15.2857 46.7006 15.3721C46.2618 15.4592 45.8783 15.5739 45.5501 15.7169C45.222 15.8591 44.9609 16.0796 44.7677 16.3775C44.5745 16.6754 44.4779 17.1602 44.4779 17.8297C44.4779 18.5372 44.5973 19.0339 44.8377 19.3191C45.0774 19.6051 45.4321 19.7474 45.9004 19.7474C46.5671 19.7228 47.1003 19.3966 47.4985 18.7695C47.8968 18.1425 48.0966 17.3143 48.0966 16.2836V14.8694H48.0981Z" fill="#323232"/>
<path d="M51.5781 10.6609H54.0376V11.927H54.073C54.2832 11.53 54.5936 11.1696 55.0044 10.8471C55.4144 10.5246 55.9292 10.363 56.5501 10.363C56.9019 10.363 57.2205 10.41 57.5081 10.503C57.795 10.5961 58.0442 10.751 58.2544 10.9685C58.4653 11.1852 58.6298 11.4682 58.7463 11.8153C58.8636 12.163 58.9218 12.5913 58.9218 13.1007V19.7101H59.871V20.1197H56.2515V19.7101H57.2707V12.8772C57.2707 12.1817 57.1681 11.7013 56.9631 11.434C56.7588 11.1673 56.4513 11.0333 56.0413 11.0333C55.795 11.0333 55.5612 11.0891 55.3385 11.2016C55.1158 11.3126 54.9196 11.4868 54.75 11.7222C54.5804 11.9582 54.4425 12.2532 54.337 12.6069C54.2308 12.9614 54.1784 13.3799 54.1784 13.864V19.7109H55.1976V20.1205H51.5789V19.7109H52.5273V11.0705H51.5789V10.6609H51.5781Z" fill="#323232"/>
<path d="M62.0153 14.0494V11.0333C62.4718 10.8352 62.9172 10.6736 63.3508 10.5492C63.7837 10.4248 64.2343 10.363 64.7034 10.363C65.2535 10.363 65.7284 10.4345 66.1267 10.5775C66.5249 10.7205 66.8553 10.9037 67.1193 11.1264C67.3833 11.3491 67.5765 11.6045 67.699 11.8897C67.8221 12.1757 67.8833 12.4609 67.8833 12.7454V19.7094H68.727V20.119H66.3383V18.4806H66.3029C66.092 19.0644 65.752 19.5329 65.2837 19.8866C64.8147 20.2404 64.2645 20.4176 63.6325 20.4176C62.8361 20.4176 62.1923 20.1905 61.7004 19.7377C61.2085 19.2849 60.9622 18.6489 60.9622 17.8289C60.9622 17.2831 61.0529 16.8459 61.2343 16.516C61.4157 16.1876 61.6591 15.9269 61.9636 15.734C62.2675 15.5419 62.6104 15.3989 62.9917 15.3058C63.3722 15.2127 63.7616 15.1293 64.1598 15.0548C64.558 14.9796 64.9467 14.8962 65.328 14.8031C65.7085 14.71 66.0455 14.57 66.3383 14.3838V12.4297C66.3383 11.8339 66.1997 11.4094 65.9253 11.1547C65.6495 10.9 65.2778 10.7726 64.8088 10.7726C64.5042 10.7726 64.2468 10.8218 64.0359 10.9216C63.825 11.0214 63.6347 11.1919 63.4651 11.434C63.2955 11.6752 63.1288 12.0104 62.9644 12.4393C62.7999 12.8683 62.6126 13.4045 62.4017 14.0494H62.0153ZM66.3369 14.8694C65.845 15.1174 65.3789 15.2857 64.9394 15.3721C64.5006 15.4592 64.1171 15.5739 63.7889 15.7169C63.4607 15.8591 63.1997 16.0796 63.0065 16.3775C62.8132 16.6754 62.7166 17.1602 62.7166 17.8297C62.7166 18.5372 62.8361 19.0339 63.0765 19.3191C63.3162 19.6051 63.6709 19.7474 64.1392 19.7474C64.8059 19.7228 65.3391 19.3966 65.7373 18.7695C66.1355 18.1425 66.3354 17.3143 66.3354 16.2836V14.8694H66.3369Z" fill="#323232"/>
<path d="M70.766 11.0705H69.8176V10.6609H72.3825V12.0394H72.418C72.6053 11.4935 72.8656 11.0772 73.2004 10.792C73.5337 10.5068 73.9821 10.3638 74.5441 10.3638C74.7668 10.3638 74.9917 10.404 75.2203 10.4852C75.4489 10.5663 75.6274 10.6371 75.7565 10.6996V14.3488H75.37L74.7557 12.4311C74.5913 11.9351 74.4504 11.5777 74.3339 11.3602C74.2166 11.1435 74.0529 11.034 73.842 11.034C73.6665 11.034 73.4902 11.1145 73.3147 11.2761C73.1392 11.4377 72.9873 11.6581 72.8582 11.9374C72.7292 12.2167 72.6237 12.5399 72.5418 12.9055C72.46 13.2719 72.4187 13.6659 72.4187 14.0882V19.7109H73.578V20.1205H69.8184V19.7109H70.7668V11.0705H70.766Z" fill="#323232"/>
<path d="M77.9008 14.0494V11.0333C78.3573 10.8352 78.8027 10.6736 79.2363 10.5492C79.6692 10.4248 80.1198 10.363 80.5888 10.363C81.139 10.363 81.6139 10.4345 82.0122 10.5775C82.4104 10.7205 82.7408 10.9037 83.0048 11.1264C83.2688 11.3491 83.462 11.6045 83.5845 11.8897C83.7076 12.1757 83.7688 12.4609 83.7688 12.7454V19.7094H84.6125V20.119H82.2238V18.4806H82.1884C81.9775 19.0644 81.6375 19.5329 81.1692 19.8866C80.7002 20.2404 80.15 20.4176 79.518 20.4176C78.7216 20.4176 78.0778 20.1905 77.5859 19.7377C77.094 19.2849 76.8477 18.6489 76.8477 17.8289C76.8477 17.2831 76.9384 16.8459 77.1198 16.516C77.3012 16.1876 77.5446 15.9269 77.8491 15.734C78.153 15.5419 78.4959 15.3989 78.8772 15.3058C79.2577 15.2127 79.6471 15.1293 80.0453 15.0548C80.4436 14.9796 80.8322 14.8962 81.2135 14.8031C81.594 14.71 81.931 14.57 82.2238 14.3838V12.4297C82.2238 11.8339 82.0852 11.4094 81.8108 11.1547C81.535 10.9 81.1633 10.7726 80.6943 10.7726C80.3897 10.7726 80.1323 10.8218 79.9214 10.9216C79.7105 11.0214 79.5202 11.1919 79.3506 11.434C79.181 11.6752 79.0143 12.0104 78.8499 12.4393C78.6854 12.8683 78.4981 13.4045 78.2872 14.0494H77.9008ZM82.2223 14.8694C81.7305 15.1174 81.2644 15.2857 80.8248 15.3721C80.386 15.4592 80.0026 15.5739 79.6744 15.7169C79.3462 15.8591 79.0852 16.0796 78.8919 16.3775C78.6987 16.6754 78.6021 17.1602 78.6021 17.8297C78.6021 18.5372 78.7216 19.0339 78.962 19.3191C79.2017 19.6051 79.5564 19.7474 80.0247 19.7474C80.6914 19.7228 81.2245 19.3966 81.6228 18.7695C82.021 18.1425 82.2209 17.3143 82.2209 16.2836V14.8694H82.2223Z" fill="#323232"/>
<path d="M122.734 15.6124L114.231 6.93433V24.27L122.734 15.6124Z" fill="#DB0011"/>
<path d="M105.728 15.6124L114.231 6.93433H97.2246L105.728 15.6124Z" fill="#DB0011"/>
<path d="M88.7019 15.6124L97.2249 24.27V6.93433L88.7019 15.6124Z" fill="#DB0011"/>
<path d="M105.728 15.6123L97.2246 24.27H114.231L105.728 15.6123Z" fill="#DB0011"/>
<path d="M133.407 16.2921H129.351V20.326H127.322V10.8782H129.351V14.7528H133.407V10.8782H135.436V20.326H133.407V16.2921Z" fill="#323232"/>
<path d="M140.335 20.5118C138.307 20.5118 136.647 19.6891 136.621 17.4333H138.649C138.676 18.4418 139.255 19.0522 140.362 19.0522C141.178 19.0522 142.127 18.6276 142.127 17.6987C142.127 16.9556 141.494 16.7433 140.441 16.4248L139.756 16.2391C138.281 15.8144 136.805 15.2306 136.805 13.5321C136.805 11.4355 138.755 10.719 140.52 10.719C142.337 10.719 143.918 11.3559 143.944 13.4525H141.916C141.837 12.6033 141.336 12.099 140.388 12.099C139.624 12.099 138.887 12.4971 138.887 13.3463C138.887 14.0363 139.519 14.2487 140.836 14.6733L141.626 14.9121C143.233 15.4164 144.26 15.9737 144.26 17.566C144.234 19.6891 142.179 20.5118 140.335 20.5118Z" fill="#323232"/>
<path d="M145.393 10.9046H148.66C149.266 10.8781 149.898 10.9046 150.504 11.0107C151.636 11.2761 152.506 12.0192 152.506 13.2931C152.506 14.5139 151.742 15.1243 150.635 15.4162C151.9 15.655 152.848 16.292 152.848 17.6985C152.848 19.8482 150.741 20.3259 149.108 20.3259H145.42L145.393 10.9046ZM148.66 14.8323C149.555 14.8323 150.477 14.6466 150.477 13.5585C150.477 12.5765 149.634 12.3111 148.791 12.3111H147.369V14.8323H148.66ZM148.844 18.9193C149.792 18.9193 150.714 18.707 150.714 17.5393C150.714 16.3716 149.924 16.1593 148.95 16.1593H147.343V18.9193H148.844Z" fill="#323232"/>
<path d="M158.116 20.5117C155.087 20.5117 153.744 18.5744 153.744 15.6817C153.744 12.7889 155.245 10.6924 158.222 10.6924C160.092 10.6924 161.91 11.5416 161.962 13.6647H159.855C159.75 12.7093 159.117 12.2316 158.222 12.2316C156.378 12.2316 155.825 14.222 155.825 15.7348C155.825 17.2475 156.378 18.999 158.143 18.999C159.065 18.999 159.75 18.4948 159.881 17.5394H161.989C161.778 19.7156 160.066 20.5117 158.116 20.5117Z" fill="#323232"/>
<rect y="29.5791" width="53.8727" height="1.51688" fill="#00ADEF"/>
<rect x="53.8728" y="29.5791" width="54.2547" height="1.51687" fill="#FFC20E"/>
<rect x="108.127" y="29.5791" width="53.8727" height="1.51687" fill="#DB0011"/>
<path d="M132.327 47.7814H127.718V38.6802H132.302V39.5903H128.732V42.5998H132.082V43.5099H128.732V46.8713H132.327V47.7814Z" fill="#323232"/>
<path d="M125.191 41.4107H124.176C124.151 40.3307 123.797 39.4084 122.525 39.4084C120.765 39.4084 120.74 41.8961 120.74 43.0975C120.691 44.3352 120.667 47.0899 122.525 47.0899C123.736 47.0899 123.992 46.1069 124.115 45.1119C124.139 44.9056 124.151 44.6993 124.176 44.493H125.191C125.166 44.675 125.166 44.8692 125.142 45.0512C125.081 45.7914 125.044 46.3496 124.604 46.9807C124.127 47.6359 123.491 48 122.611 48C119.787 48 119.689 45.2939 119.689 43.1217C119.689 41.0709 119.994 38.4983 122.599 38.4983C124.335 38.4983 125.24 39.7846 125.191 41.4107Z" fill="#323232"/>
<path d="M116.103 46.1068V38.6802H117.118V47.7814H115.455L112.887 40.5004C112.74 40.0878 112.63 39.6752 112.545 39.1292H112.52C112.533 39.5903 112.545 40.0636 112.545 40.5247V47.7814H111.53V38.6802H113.181L115.785 46.1311C115.895 46.4102 115.98 46.7014 116.103 47.1261H116.127C116.115 46.7985 116.103 46.4466 116.103 46.1068Z" fill="#323232"/>
<path d="M102.951 47.7814L105.567 38.6802H106.912L109.492 47.7814H108.367L107.646 45.1603H104.748L104.076 47.7814H102.951ZM107.414 44.2501L106.228 39.4083H106.203L104.993 44.2501H107.414Z" fill="#323232"/>
<path d="M96.4303 39.5903V42.8668H98.032C98.5088 42.8546 99.8293 42.7818 99.8048 41.1921C99.7804 39.6267 98.5455 39.5903 97.8608 39.5903H96.4303ZM96.4303 43.7769V47.7814H95.4155V38.6802H97.7752C99.6948 38.6802 100.917 39.1777 100.856 41.2771C100.82 42.3449 100.159 43.1095 99.0957 43.2551V43.2793C100.282 43.3886 100.575 43.7647 100.722 44.9782C100.758 45.6578 100.82 46.3252 100.917 47.0048C100.954 47.1747 101.027 47.5751 101.272 47.5751V47.7814H100.086C99.8659 47.1989 99.7681 46.0704 99.7681 45.4636C99.7681 44.5535 99.4013 43.7769 98.2032 43.7769H96.4303Z" fill="#323232"/>
<path d="M86.9021 45.585V38.6802H87.9169V45.2209C87.9047 45.9369 88.0269 47.0897 89.653 47.0897C91.2792 47.0897 91.4014 45.9369 91.3892 45.2209V38.6802H92.404V45.585C92.404 47.2111 91.3158 47.9999 89.653 47.9999C87.9903 47.9999 86.9021 47.2111 86.9021 45.585Z" fill="#323232"/>
<path d="M84.045 41.0709H83.0302C83.1036 40.1244 82.5901 39.4084 81.5753 39.4084C80.0959 39.4084 79.9369 40.3307 79.9369 41.0345C79.9369 41.6655 80.2181 42.0538 80.805 42.2723C81.2941 42.4543 81.7709 42.6363 82.2599 42.8184C83.9961 43.4615 84.314 44.0683 84.314 45.2696C84.314 46.9928 83.2258 48 81.4652 48C80.5605 48 79.4845 47.7452 78.9588 46.5559C78.7632 46.1069 78.7754 45.3788 78.7632 44.8934H79.778C79.7291 46.2404 79.9858 47.0899 81.5141 47.0899C82.5411 47.0899 83.2625 46.5681 83.2625 45.5002C83.2625 44.1168 82.7001 44.1047 81.7709 43.7527C81.2696 43.5586 80.4627 43.3038 79.9736 43.0489C79.1055 42.6121 78.8854 41.884 78.8854 40.986C78.8854 39.4812 79.9491 38.4983 81.4408 38.4983C83.1158 38.4983 84.1428 39.3599 84.045 41.0709Z" fill="#323232"/>
<path d="M75.2013 46.1068V38.6802H76.2161V47.7814H74.5533L71.9858 40.5004C71.8391 40.0878 71.729 39.6752 71.6435 39.1292H71.619C71.6312 39.5903 71.6435 40.0636 71.6435 40.5247V47.7814H70.6287V38.6802H72.2792L74.8835 46.1311C74.9935 46.4102 75.0791 46.7014 75.2013 47.1261H75.2258C75.2136 46.7985 75.2013 46.4466 75.2013 46.1068Z" fill="#323232"/>
<path d="M67.5192 47.7814H66.5044V38.6802H67.5192V47.7814Z" fill="#323232"/>
<path d="M59.6943 47.7814H55.085V38.6802H59.6699V39.5903H56.0998V42.5998H59.4498V43.5099H56.0998V46.8713H59.6943V47.7814Z" fill="#323232"/>
<path d="M49.6891 47.7814H48.6743V38.6802H52.978V39.5903H49.6891V42.5755H52.7457V43.4856H49.6891V47.7814Z" fill="#323232"/>
<path d="M45.6017 47.7814H44.5869V38.6802H45.6017V47.7814Z" fill="#323232"/>
<path d="M42.0678 47.7814H37.3118V38.6802H38.3266V46.8713H42.0678V47.7814Z" fill="#323232"/>
</svg>
