<svg xmlns="http://www.w3.org/2000/svg" viewBox="0 0 147 43" fill="none"><path fill="#323232" d="M146.183 37.599c0 2.263-1.871 4.096-4.186 4.096H5.008c-2.313 0-4.191-1.833-4.191-4.096V4.933C.817 2.67 2.695.83 5.008.83h136.988c2.316 0 4.186 1.84 4.186 4.102z" /><path fill="#A7A7A7" d="M141.556.88c2.52 0 4.572 2 4.572 4.458v31.85c0 2.457-2.052 4.457-4.572 4.457H5.444c-2.52 0-4.572-2-4.572-4.457V5.338C.872 2.88 2.924.88 5.444.88zm0-.85H5.444C2.451.03 0 2.42 0 5.337v31.85c0 2.918 2.451 5.308 5.444 5.308h136.112c2.993 0 5.444-2.39 5.444-5.308V5.338c0-2.918-2.451-5.309-5.444-5.309" /><path fill="#fff" d="M32.806 21.034c-.031-3.422 2.874-5.087 3.007-5.164-1.646-2.34-4.196-2.659-5.092-2.684-2.142-.22-4.22 1.25-5.31 1.25-1.114 0-2.794-1.23-4.605-1.193-2.33.035-4.51 1.35-5.705 3.393-2.468 4.165-.628 10.286 1.736 13.652 1.183 1.649 2.565 3.49 4.374 3.425 1.769-.071 2.43-1.1 4.565-1.1 2.116 0 2.736 1.1 4.581 1.059 1.9-.03 3.095-1.657 4.236-3.32 1.366-1.89 1.915-3.751 1.937-3.847-.045-.014-3.688-1.37-3.724-5.471M29.322 10.971c.951-1.16 1.602-2.74 1.422-4.341-1.378.06-3.1.929-4.092 2.064-.878 1-1.662 2.64-1.46 4.18 1.548.113 3.136-.76 4.13-1.903M58.414 33.476H55.94l-1.355-4.15h-4.708l-1.29 4.15H46.18l4.665-14.128h2.88zm-4.236-5.89-1.225-3.69q-.195-.566-.73-2.662h-.044q-.215.902-.689 2.662l-1.203 3.69zM70.41 28.257q0 2.599-1.44 4.107-1.292 1.342-3.204 1.342-2.065 0-2.968-1.446h-.043v5.367h-2.322V26.642q-.001-1.634-.086-3.354h2.042l.13 1.615h.043q1.162-1.825 3.526-1.824 1.85 0 3.085 1.425 1.237 1.426 1.237 3.753m-2.365.083q0-1.488-.689-2.453-.752-1.006-2.02-1.006-.86.002-1.559.555-.699.557-.913 1.458-.108.42-.108.69v1.698q0 1.112.699 1.877.699.766 1.816.766 1.312-.001 2.042-.985.732-.987.732-2.6M82.428 28.257q0 2.599-1.442 4.107-1.289 1.342-3.202 1.342-2.065 0-2.967-1.446h-.043v5.367h-2.322V26.642q0-1.634-.085-3.354h2.041l.13 1.615h.043q1.16-1.825 3.526-1.824 1.847 0 3.086 1.425 1.234 1.426 1.235 3.753m-2.365.083q0-1.488-.69-2.453-.751-1.006-2.02-1.006-.86.002-1.559.555-.699.557-.912 1.458-.107.42-.108.69v1.698q0 1.112.697 1.877.698.766 1.818.766 1.312-.001 2.042-.985.732-.987.732-2.6M95.865 29.514q0 1.803-1.287 2.935-1.416 1.237-3.948 1.236-2.337 0-3.755-.88l.538-1.886q1.528.901 3.356.902 1.311 0 2.043-.577.73-.578.73-1.544 0-.86-.602-1.448-.6-.588-2-1.093-3.804-1.385-3.804-4.05 0-1.744 1.334-2.856 1.33-1.113 3.548-1.112 1.977 0 3.288.67l-.58 1.846q-1.224-.65-2.774-.65-1.225 0-1.912.587-.58.524-.58 1.28-.001.838.665 1.383.58.502 2.108 1.09 1.87.735 2.752 1.718.88.982.88 2.45M103.54 24.987h-2.559v4.946q0 1.888 1.355 1.887.623 0 1.031-.105l.064 1.719q-.686.25-1.805.25-1.375 0-2.15-.817-.775-.819-.775-2.747v-5.135h-1.524v-1.699H98.7v-1.865l2.28-.671v2.536h2.559zM115.086 28.298q0 2.35-1.377 3.857-1.441 1.552-3.828 1.551-2.3 0-3.664-1.487-1.366-1.488-1.366-3.752-.001-2.369 1.408-3.877 1.407-1.51 3.794-1.51 2.3 0 3.698 1.489 1.335 1.444 1.335 3.73m-2.409.073q.001-1.41-.623-2.417-.73-1.22-2.084-1.219-1.399 0-2.129 1.219-.624 1.009-.623 2.46-.001 1.41.623 2.416.752 1.22 2.108 1.219 1.331 0 2.085-1.24.642-1.03.643-2.438M122.632 25.279a4 4 0 0 0-.732-.063q-1.225 0-1.893.903-.58.795-.58 2.012v5.345h-2.32l.021-6.98q0-1.761-.087-3.207h2.022l.085 1.95h.065q.367-1.007 1.16-1.614a2.85 2.85 0 0 1 1.678-.546q.323.001.581.041zM133.014 27.9q.001.609-.085 1.027h-6.964q.04 1.51 1.01 2.307.88.713 2.278.713 1.548 0 2.818-.482l.364 1.571q-1.483.63-3.503.63-2.43 0-3.818-1.394-1.385-1.395-1.386-3.742 0-2.305 1.292-3.835 1.353-1.635 3.653-1.634 2.259 0 3.42 1.634.92 1.298.921 3.206m-2.214-.586q.022-1.007-.45-1.74-.604-.945-1.85-.944-1.14-.001-1.848.922-.58.735-.687 1.76h4.835zM53.41 10.655q0 1.875-1.152 2.822-1.067.875-3.03.875-.974 0-1.67-.083V7.44a12.6 12.6 0 0 1 1.966-.144q1.87 0 2.82.793 1.066.896 1.066 2.565m-1.203.03q0-1.214-.66-1.864-.66-.648-1.928-.648-.54 0-.92.072v5.19q.212.032.771.031 1.31 0 2.023-.71.712-.71.714-2.07M59.79 11.747q0 1.154-.676 1.895-.709.762-1.88.762-1.13 0-1.802-.732-.67-.731-.67-1.843 0-1.163.692-1.904t1.864-.741q1.13 0 1.817.73.654.71.655 1.832m-1.184.036q0-.693-.306-1.188-.36-.6-1.023-.6-.688 0-1.047.6-.306.494-.306 1.208 0 .692.306 1.188.371.598 1.036.598.653 0 1.023-.609.318-.505.317-1.197M68.344 9.285l-1.606 5.005h-1.045l-.666-2.173a16 16 0 0 1-.412-1.617h-.021q-.149.824-.413 1.617l-.706 2.173h-1.058l-1.51-5.005h1.173l.58 2.38q.21.844.349 1.606h.02q.127-.63.424-1.596l.728-2.389h.93l.698 2.338q.253.855.412 1.648h.031q.117-.772.349-1.648l.623-2.338h1.12M74.26 14.29h-1.141v-2.866q0-1.325-1.035-1.325-.506 0-.824.364-.316.365-.317.858v2.968h-1.14v-3.573q0-.659-.042-1.432h1.003l.053.782h.032q.199-.364.59-.604.466-.28 1.035-.281.72 0 1.195.453.591.556.591 1.658zM77.407 14.29h-1.14v-7.3h1.14zM84.125 11.747q0 1.154-.676 1.895-.709.762-1.88.762-1.132 0-1.801-.732-.67-.731-.67-1.843 0-1.163.692-1.904.691-.741 1.863-.741 1.13 0 1.818.73.654.71.654 1.832m-1.184.036q0-.693-.306-1.188-.359-.6-1.023-.6-.69 0-1.046.6-.307.494-.306 1.208 0 .692.306 1.188.37.598 1.035.598.654 0 1.023-.609.317-.505.317-1.197M89.648 14.29h-1.024l-.085-.576h-.032q-.525.69-1.5.69-.727 0-1.171-.453a1.4 1.4 0 0 1-.402-1.02q-.001-.916.788-1.4.787-.485 2.213-.474v-.093q0-.989-1.066-.988-.76 0-1.338.37l-.232-.73q.717-.432 1.76-.432 2.014 0 2.015 2.07v1.843q0 .75.074 1.193m-1.184-1.72V11.8q-1.89-.032-1.889 1.008-.001.392.22.587a.8.8 0 0 0 .557.195q.376 0 .698-.23a.95.95 0 0 0 .413-.789M96.133 14.29H95.12l-.053-.803h-.032q-.485.917-1.649.917a1.95 1.95 0 0 1-1.541-.71q-.613-.712-.612-1.843-.001-1.216.665-1.968.644-.7 1.584-.7 1.035 0 1.446.68h.022V6.988h1.142v5.953q0 .73.04 1.348m-1.183-2.11v-.835q0-.216-.032-.35a1.26 1.26 0 0 0-.412-.674 1.14 1.14 0 0 0-.764-.273q-.636 0-1.004.495-.364.494-.365 1.266 0 .742.35 1.205.37.494.998.494.56 0 .901-.412.329-.381.328-.916M105.892 11.747q0 1.154-.676 1.895-.708.762-1.88.762-1.13 0-1.801-.732-.67-.731-.67-1.843 0-1.163.691-1.904.692-.741 1.866-.741 1.13 0 1.816.73.653.71.654 1.832m-1.182.036q0-.693-.306-1.188-.36-.6-1.025-.6-.686 0-1.046.6-.307.494-.306 1.208 0 .692.306 1.188.37.598 1.035.598.655 0 1.025-.609.316-.505.317-1.197M112.028 14.29h-1.14v-2.866q0-1.325-1.035-1.325a1.04 1.04 0 0 0-.824.364q-.317.365-.317.858v2.968h-1.142v-3.573q0-.659-.04-1.432h1.002l.053.782h.032q.202-.364.591-.604.465-.28 1.035-.281.718 0 1.194.453.592.556.591 1.658zM119.708 10.119h-1.256v2.431q.001.927.665.927.307 0 .508-.052l.03.844q-.34.124-.887.124-.674 0-1.055-.401-.382-.402-.381-1.35V10.12h-.75v-.834h.75v-.917l1.118-.329v1.245h1.257v.835zM125.749 14.29h-1.142v-2.845q0-1.346-1.033-1.346-.793 0-1.089.78-.053.165-.054.4v3.01h-1.14v-7.3h1.14v3.016h.022q.54-.822 1.542-.822.71 0 1.174.453.58.566.58 1.679zM131.981 11.55q0 .3-.043.505h-3.422q.022.742.495 1.133.435.35 1.121.35.76 0 1.384-.236l.179.773q-.73.308-1.723.308-1.194 0-1.874-.684-.682-.686-.681-1.838 0-1.132.634-1.885.663-.802 1.795-.802 1.108 0 1.678.802.458.637.457 1.575m-1.089-.287a1.46 1.46 0 0 0-.221-.854q-.296-.465-.908-.464-.56 0-.908.453-.284.36-.339.865z" /></svg>
