<svg xmlns="http://www.w3.org/2000/svg" viewBox="0 0 16 16" fill="none"><path fill="#00adef" d="M4.875 5.578a.625.625 0 0 1 .625-.625h5a.625.625 0 1 1 0 1.25h-5a.625.625 0 0 1-.625-.625M5.5 8.703h5a.625.625 0 1 0 0-1.25h-5a.625.625 0 0 0 0 1.25M8 9.953H5.5a.625.625 0 0 0 0 1.25H8a.625.625 0 1 0 0-1.25m7.5-8.125v8.492a1.24 1.24 0 0 1-.366.883l-4.009 4.009a1.24 1.24 0 0 1-.884.366H1.75a1.25 1.25 0 0 1-1.25-1.25v-12.5A1.25 1.25 0 0 1 1.75.578h12.5a1.25 1.25 0 0 1 1.25 1.25m-13.75 12.5h8.125v-3.75a.625.625 0 0 1 .625-.625h3.75V1.828H1.75zm9.375-3.125v2.242l2.241-2.242z" /></svg>
