<svg xmlns="http://www.w3.org/2000/svg" viewBox="0 0 33 32" fill="none"><path fill="#00adef" d="M10.5 15h12a1 1 0 0 0 1-1V8a1 1 0 0 0-1-1h-12a1 1 0 0 0-1 1v6a1 1 0 0 0 1 1m1-6h10v4h-10zm14-6h-18a2 2 0 0 0-2 2v22a2 2 0 0 0 2 2h18a2 2 0 0 0 2-2V5a2 2 0 0 0-2-2m0 24h-18V5h18zM13 18.5a1.5 1.5 0 1 1-3 0 1.5 1.5 0 0 1 3 0m5 0a1.5 1.5 0 1 1-3 0 1.5 1.5 0 0 1 3 0m5 0a1.5 1.5 0 1 1-3 0 1.5 1.5 0 0 1 3 0m-10 5a1.5 1.5 0 1 1-3 0 1.5 1.5 0 0 1 3 0m5 0a1.5 1.5 0 1 1-3 0 1.5 1.5 0 0 1 3 0m5 0a1.5 1.5 0 1 1-3 0 1.5 1.5 0 0 1 3 0" /></svg>
