<svg xmlns="http://www.w3.org/2000/svg" viewBox="0 0 31 32" fill="none"><path fill="currentColor" stroke="currentColor" stroke-width="4" d="M6.104 8.956c0-.246.2-.446.446-.446H18.22a.446.446 0 0 1 0 .892H6.55a.446.446 0 0 1-.445-.446Zm.445 3.063h11.672a.446.446 0 0 0 0-.891H6.55a.446.446 0 0 0 0 .891Zm6.91 2.45H6.55a.446.446 0 0 0 0 .892h6.91a.446.446 0 0 0 0-.892Zm0 2.618H6.55a.446.446 0 0 0 0 .891h6.91a.446.446 0 0 0 0-.892Zm0 3.341H6.55a.446.446 0 0 0 0 .892h6.91a.446.446 0 0 0 0-.892Zm0 2.617H6.55a.446.446 0 0 0 0 .892h6.91a.446.446 0 0 0 0-.892Zm14.404-6.274v5.38c0 3.573-2.667 6.653-6.204 7.164a.4.4 0 0 1-.127 0 7.2 7.2 0 0 1-4.03-2.01H3.81c-.86 0-1.56-.7-1.56-1.56V5.254c0-.86.7-1.56 1.56-1.56h3.842V2.693c0-.246.2-.446.446-.446h2.124A2.33 2.33 0 0 1 12.386.798c.963 0 1.808.58 2.163 1.448h2.124c.246 0 .446.2.446.446v1.002h3.842c.86 0 1.56.7 1.56 1.56v9.593c1.521.687 2.778 1.182 4.153.932.3-.054.593.023.827.218s.362.47.362.774ZM8.543 5.141h7.685V3.138h-2.002a.446.446 0 0 1-.433-.341 1.44 1.44 0 0 0-1.408-1.107c-.671 0-1.25.455-1.407 1.107a.446.446 0 0 1-.433.341H8.543zM3.81 26.415h12.92a7.2 7.2 0 0 1-1.403-4.263v-5.38c0-.304.129-.579.362-.774a1 1 0 0 1 .827-.218c1.51.274 2.877-.35 4.608-1.14l.287-.13a.45.45 0 0 1 .218-.038V5.253c0-.368-.3-.668-.668-.668H17.12v1.003c0 .245-.2.445-.446.445H8.098a.446.446 0 0 1-.446-.445V4.585H3.81c-.369 0-.669.3-.669.668v20.493c0 .369.3.668.669.668Zm23.162-9.643a.1.1 0 0 0-.042-.09.1.1 0 0 0-.096-.025c-1.785.324-3.339-.385-5.138-1.206l-.1-.045-.101.045c-1.494.682-2.82 1.286-4.247 1.286a5 5 0 0 1-.918-.083.1.1 0 0 0-.069.028.1.1 0 0 0-.042.09v5.38c0 3.11 2.307 5.796 5.377 6.272 3.07-.476 5.377-3.161 5.377-6.272zm-.98 1.378v4.002a5.39 5.39 0 0 1-4.309 5.262.5.5 0 0 1-.176 0 5.39 5.39 0 0 1-4.31-5.262V18.15c0-.236.184-.43.419-.445 1.342-.083 2.612-.61 3.796-1.141a.45.45 0 0 1 .366 0c1.184.532 2.453 1.058 3.796 1.14.235.016.418.21.418.446Zm-.89.407c-1.259-.151-2.419-.615-3.507-1.099-1.088.484-2.248.947-3.506 1.099v3.596a4.49 4.49 0 0 0 3.506 4.37 4.49 4.49 0 0 0 3.506-4.37zM19.4 21.415a.446.446 0 0 0-.63.63l1.793 1.793a.446.446 0 0 0 .632-.001l3.225-3.258a.446.446 0 1 0-.634-.627l-2.91 2.94z" mask="url(#check-claim-status_a)" /></svg>
