<svg xmlns="http://www.w3.org/2000/svg" viewBox="0 0 95 95" fill="none"><path fill="#00adef" d="M52.651 83.124c-1.247-.612-1.725-1.62-1.703-2.994.044-2.735.028-5.47.007-8.206-.011-1.484.391-2.658 2.001-3.072.427-.11.38-.477.373-.797-.035-1.722.022-3.437.548-5.09 1.03-3.237 2.836-5.79 6.15-7.082 2.395-.935 4.504-2.363 6.441-4.055 1.875-1.638 3.97-2.001 6.253-.937.417.195.603.138.782-.29.732-1.753 1.493-3.493 2.246-5.239.496-1.153 1.334-1.937 2.546-2.29a3.83 3.83 0 0 1 4.565 2.118c.096.212.178.427.267.641v1.949c-1.562 3.435-3.14 6.866-4.677 10.311-.756 1.692-1.747 3.204-3.067 4.509-2.192 2.165-4.356 4.36-6.545 6.526-.323.32-.46.578-.185 1.01.277.438.317.955.316 1.476-.007 2.85-.035 5.7.01 8.548.022 1.374-.434 2.388-1.718 2.966H52.65zm8.217-14.352c1.346 0 2.692-.021 4.036.01.533.012.91-.17 1.279-.545 2.133-2.162 4.253-4.341 6.448-6.44 1.67-1.597 2.973-3.397 3.883-5.53 1.246-2.921 2.616-5.788 3.916-8.686.41-.917.157-1.687-.596-2.007-.733-.312-1.41.017-1.812.91-.399.888-.76 1.792-1.159 2.682-.957 2.132-1.642 4.412-3.146 6.255-2.041 2.503-4.475 4.634-6.745 6.922-.526.53-1.258.448-1.74-.067-.514-.547-.484-1.228.133-1.853 1.448-1.469 2.915-2.922 4.373-4.383.673-.672 1.364-1.326 1.94-2.089.428-.565.407-.666-.267-.914-1.234-.455-2.325-.171-3.284.689a25.3 25.3 0 0 1-7.526 4.67c-1.155.462-2.058 1.234-2.79 2.225-1.628 2.204-2.025 4.722-1.934 7.384.02.627.232.79.82.778 1.39-.032 2.783-.01 4.174-.01zm-.841 2.56c-1.901 0-3.802.018-5.702-.011-.583-.008-.824.133-.815.77.03 2.62.026 5.239.003 7.858-.006.565.163.766.748.764q5.7-.032 11.404 0c.59.002.753-.208.748-.768q-.033-3.93 0-7.857c.004-.565-.169-.775-.753-.766-1.877.03-3.755.011-5.632.011zM11.876 45.97c.159-.361.279-.745.482-1.078.807-1.318 1.986-1.979 3.544-1.888 1.464.085 2.587.776 3.208 2.098.826 1.762 1.572 3.563 2.317 5.362.211.512.394.656.959.4 2.175-.989 4.231-.687 6.025.866 2.161 1.872 4.552 3.32 7.18 4.44 3.002 1.28 4.578 3.805 5.528 6.783.52 1.63.605 3.323.544 5.023-.02.542.14.812.704.986 1.137.352 1.65 1.261 1.66 2.398.03 3.107.024 6.215.003 9.322-.007 1.168-.675 1.933-1.678 2.442H27.74c-1.283-.577-1.738-1.592-1.715-2.965.044-2.849.016-5.697.01-8.546 0-.519.034-1.035.314-1.474.274-.428.145-.69-.181-1.011-1.879-1.855-3.7-3.77-5.618-5.584-1.881-1.78-3.344-3.805-4.35-6.201-1.37-3.265-2.985-6.424-4.325-9.704zm22.246 22.8c1.438 0 2.875-.004 4.313.003.385.001.681-.039.68-.547-.003-1.366.068-2.743-.296-4.077-.657-2.404-1.744-4.563-4.154-5.612-2.895-1.263-5.582-2.807-7.938-4.925-.85-.764-1.87-.988-2.983-.617-.828.277-.856.393-.33 1.072.641.828 1.415 1.532 2.148 2.272 1.371 1.383 2.764 2.745 4.122 4.14.763.784.517 1.894-.45 2.174-.584.168-1.029-.096-1.43-.498-1.39-1.398-2.742-2.835-4.19-4.17-2.141-1.977-3.687-4.315-4.724-7.031-.603-1.58-1.315-3.117-2.01-4.66-.325-.723-.994-.991-1.654-.746-.69.254-1.013.93-.78 1.709.113.374.293.73.456 1.09 1.34 2.953 2.69 5.905 4.023 8.862.558 1.238 1.26 2.375 2.22 3.34 2.586 2.595 5.184 5.178 7.764 7.777.32.323.656.46 1.107.453 1.368-.02 2.735-.007 4.103-.007zm.9 11.933c1.924 0 3.848-.013 5.771.008.504.006.697-.15.695-.675q-.03-3.997 0-7.996c.004-.55-.187-.719-.725-.716q-5.7.026-11.404 0c-.562-.003-.775.161-.771.747q.034 3.964 0 7.926c-.004.553.192.721.73.714 1.901-.023 3.8-.01 5.702-.01zM48.059 11.875c2.477 1.1 4.948 2.21 7.43 3.302 3.33 1.465 6.662 2.925 10.004 4.367.786.34 1.112.884 1.11 1.73-.014 6.098.046 12.195-.028 18.292-.051 4.26-1.778 7.805-5.203 10.37-4.1 3.07-8.29 6.021-12.45 9.01-.96.69-1.884.685-2.84 0-4.14-2.976-8.308-5.917-12.395-8.967-3.496-2.61-5.227-6.206-5.264-10.55-.053-6.028-.006-12.056-.024-18.084-.003-.903.334-1.453 1.18-1.82 5.572-2.412 11.13-4.857 16.692-7.294.232-.101.45-.233.675-.352h1.113zm15.974 19.493c0-2.99-.01-5.98.01-8.971.002-.507-.147-.795-.632-1.006a2606 2606 0 0 1-15.16-6.631c-.538-.238-.99-.216-1.518.018a2553 2553 0 0 1-15.097 6.6c-.51.22-.675.508-.672 1.05.018 5.726-.016 11.452.022 17.178.023 3.497 1.493 6.339 4.29 8.411 3.874 2.87 7.815 5.648 11.72 8.477.35.254.615.297.986.027 3.922-2.846 7.885-5.635 11.773-8.523 2.839-2.11 4.257-5.01 4.275-8.563.014-2.69.003-5.378.003-8.068z" /><path fill="#00adef" d="M57.544 77.314c-.274-.035-.557-.04-.823-.109-.647-.17-1.028-.716-.964-1.34.061-.592.514-1.049 1.152-1.11.391-.037.788-.029 1.182-.014.786.032 1.326.528 1.354 1.217.026.67-.497 1.217-1.274 1.311-.206.025-.416.004-.624.004l-.003.042zM37.379 74.725c.276.014.562-.009.83.047.613.126 1 .51 1.03 1.143.03.618-.267 1.075-.875 1.267-.564.177-1.151.154-1.722.05-.69-.127-1.135-.705-1.08-1.324.056-.647.55-1.107 1.259-1.164.183-.015.37-.003.556-.003v-.016zM33.148 31.964c0-2.457.025-4.916-.013-7.374-.015-1.01.352-1.618 1.31-2.026a724 724 0 0 0 11.912-5.213c.814-.364 1.502-.353 2.311.007a913 913 0 0 0 11.974 5.244c.872.374 1.222.947 1.22 1.876-.019 4.938.01 9.877-.017 14.816-.017 2.951-1.215 5.344-3.614 7.089-3.188 2.318-6.39 4.614-9.59 6.916-.987.71-1.306.694-2.3-.023-3.046-2.197-6.064-4.435-9.15-6.576-2.787-1.936-4.105-4.55-4.052-7.918.035-2.273.007-4.545.007-6.818zm26.143.657c0-2.364-.016-4.728.013-7.093.007-.55-.19-.836-.684-1.05a1766 1766 0 0 1-10.509-4.597c-.412-.182-.779-.18-1.195.002a1379 1379 0 0 1-10.512 4.588c-.526.227-.708.533-.706 1.103.021 4.567.02 9.133.009 13.7q-.008 3.194 2.56 5.059c2.907 2.112 5.828 4.202 8.734 6.315.353.257.62.284.985.016 2.942-2.141 5.907-4.25 8.842-6.402 1.64-1.203 2.46-2.856 2.463-4.897.004-2.249 0-4.498 0-6.747z" /><path fill="#00adef" d="M45.095 42.804c-.374.01-.663-.182-.943-.393-1.447-1.086-2.897-2.167-4.34-3.26-.755-.571-.9-1.284-.417-1.914.461-.6 1.158-.653 1.908-.11.902.652 1.786 1.329 2.676 1.997q.83.621 1.388-.213 3.935-5.904 7.873-11.808c.155-.23.304-.472.497-.668.454-.459 1.073-.503 1.584-.146.503.354.68.96.428 1.537a4 4 0 0 1-.346.6c-2.982 4.479-5.969 8.954-8.95 13.432-.33.495-.686.948-1.358.946" /></svg>
