<svg xmlns="http://www.w3.org/2000/svg" viewBox="0 0 32 26" fill="none"><path fill="currentColor" d="M29.333.556H2.667A2.667 2.667 0 0 0 0 3.222v19.556a2.667 2.667 0 0 0 2.667 2.667h26.666A2.667 2.667 0 0 0 32 22.778V3.222A2.667 2.667 0 0 0 29.333.556m0 22.222H2.667V3.222h26.666zM11.556 13a3.56 3.56 0 0 0 3.555-3.555 3.56 3.56 0 0 0-3.555-3.556A3.56 3.56 0 0 0 8 9.445 3.56 3.56 0 0 0 11.556 13m-4.978 7.111h9.955c.69 0 1.245-.478 1.245-1.066v-1.067c0-1.767-1.672-3.2-3.734-3.2-.6 0-1.038.444-2.488.444-1.495 0-1.856-.444-2.49-.444-2.06 0-3.733 1.433-3.733 3.2v1.067c0 .588.556 1.066 1.245 1.066M20 16.556h6.222c.245 0 .445-.2.445-.445v-.889c0-.244-.2-.444-.445-.444H20c-.244 0-.444.2-.444.444v.89c0 .244.2.444.444.444M20 13h6.222c.245 0 .445-.2.445-.444v-.89c0-.244-.2-.444-.445-.444H20c-.244 0-.444.2-.444.445v.889c0 .244.2.444.444.444m0-3.555h6.222c.245 0 .445-.2.445-.445v-.889c0-.244-.2-.444-.445-.444H20c-.244 0-.444.2-.444.444v.89c0 .244.2.444.444.444" /></svg>
