<svg xmlns="http://www.w3.org/2000/svg" viewBox="0 0 19 19" fill="none"><path fill="currentColor" d="M11.275 1.556a.75.75 0 0 1 .92-.53 8.08 8.08 0 0 1 5.78 5.78.751.751 0 0 1-1.182.789.75.75 0 0 1-.268-.402 6.6 6.6 0 0 0-4.718-4.718.75.75 0 0 1-.532-.92m-.218 3.919c1.293.345 2.123 1.175 2.468 2.468a.75.75 0 1 0 1.45-.387c-.48-1.796-1.735-3.05-3.53-3.53a.75.75 0 0 0-.388 1.449m7.682 8.939A5.274 5.274 0 0 1 13.5 19C6.056 19 0 12.944 0 5.5A5.274 5.274 0 0 1 4.586.26a1.5 1.5 0 0 1 1.558.893l1.98 4.42v.011A1.5 1.5 0 0 1 8.005 7l-.053.072L6 9.386c.702 1.427 2.195 2.906 3.64 3.61l2.282-1.941a1.501 1.501 0 0 1 1.492-.184l.013.005 4.416 1.98a1.5 1.5 0 0 1 .896 1.558m-1.489-.188h-.01l-4.407-1.973-2.282 1.941a1 1 0 0 1-.07.053 1.5 1.5 0 0 1-1.476.107c-1.756-.849-3.507-2.586-4.356-4.323a1.5 1.5 0 0 1 .094-1.472 1 1 0 0 1 .053-.072L6.75 6.17 4.781 1.764v-.011A3.77 3.77 0 0 0 1.5 5.5a12.013 12.013 0 0 0 12 12 3.77 3.77 0 0 0 3.75-3.275z" /></svg>
