<svg xmlns="http://www.w3.org/2000/svg" viewBox="0 0 27 32" fill="currentColor"><path d="M24.174 21.912a22 22 0 0 0-1.47-.186v-1.272a1.195 1.195 0 0 0-1.147-1.19 23.5 23.5 0 0 0-8.246 1.117 23.4 23.4 0 0 0-8.246-1.118 1.194 1.194 0 0 0-1.147 1.19v1.273c-.527.052-1.028.112-1.47.186a1.185 1.185 0 0 0-.989 1.175v.842A1.187 1.187 0 0 0 2.845 25.1a20.2 20.2 0 0 1 10.075.908c.253.087.528.087.78 0a20.2 20.2 0 0 1 10.076-.908 1.182 1.182 0 0 0 1.387-1.173v-.84a1.186 1.186 0 0 0-.99-1.176M12.94 25.235a21.3 21.3 0 0 0-6.847-1.146c-1.13 0-2.258.094-3.372.282a.444.444 0 0 1-.52-.443v-.84a.446.446 0 0 1 .37-.444 22.44 22.44 0 0 1 10.37.782zm0-2.582a23.5 23.5 0 0 0-8.281-.99v-1.21a.454.454 0 0 1 .439-.45c2.655-.113 5.309.24 7.842 1.042zm.741-1.608a22.8 22.8 0 0 1 7.843-1.041.453.453 0 0 1 .439.45v1.21a23.4 23.4 0 0 0-8.282.99zm10.74 2.883a.44.44 0 0 1-.16.344.43.43 0 0 1-.361.099 21 21 0 0 0-10.22.868v-1.814a22.44 22.44 0 0 1 10.37-.781.444.444 0 0 1 .371.443zM2.051 8.625l.482.195v8.865a.7.7 0 0 0-.154.1.74.74 0 0 0 0 1.044.73.73 0 0 0 .526.215.738.738 0 0 0 .525-1.26.7.7 0 0 0-.156-.098V9.121l2.944 1.196v5.94c.001.43.35.778.78.78h12.627a.78.78 0 0 0 .78-.78v-5.94l4.166-1.693a.95.95 0 0 0 0-1.755L13.666 2.442a.95.95 0 0 0-.71 0L2.051 6.869a.948.948 0 0 0 0 1.756m17.574 7.671-12.667-.04v-5.638l5.997 2.435a.93.93 0 0 0 .713 0l5.993-2.434zM2.329 7.556l10.904-4.43c.05-.02.106-.02.155 0l10.903 4.43a.206.206 0 0 1 0 .382l-4.4 1.788h-.001l-6.502 2.642a.2.2 0 0 1-.155 0l-6.5-2.641H6.73l-2.239-.91 8.849-.7a.37.37 0 0 0-.06-.739l-10.32.816-.63-.256a.206.206 0 0 1 0-.382" /></svg>
