<svg xmlns="http://www.w3.org/2000/svg" viewBox="0 0 32 32" fill="none"><path fill="currentColor" d="M22.5 11.642v-1.139c0-2.803-4.613-5-10.5-5s-10.5 2.197-10.5 5v5c0 2.393 3.358 4.34 8 4.862v1.138c0 2.804 4.613 5 10.5 5s10.5-2.196 10.5-5v-5c0-2.36-3.266-4.328-8-4.86m7 4.861c0 1.932-3.817 4-9.5 4a20.7 20.7 0 0 1-3.5-.292v-.174c3.576-.789 6-2.5 6-4.534V12.65c4.028.478 7 2.095 7 3.853m-15.976 2.95q-.737.05-1.524.05-1.027-.001-1.966-.086H10q-.78-.07-1.5-.195v-3.994c1.157.186 2.328.278 3.5.275 1.172.003 2.343-.09 3.5-.275v3.99q-.964.165-1.94.232zm7.976-6.785v2.835c0 1.36-1.895 2.788-5 3.514v-3.98c2.204-.486 3.969-1.322 5-2.369M12 6.503c5.683 0 9.5 2.07 9.5 4 0 1.932-3.817 4-9.5 4s-9.5-2.068-9.5-4c0-1.93 3.818-4 9.5-4m-9.5 9v-2.835c1.031 1.047 2.796 1.883 5 2.375v3.98c-3.105-.732-5-2.16-5-3.52m8 6v-1.05a23 23 0 0 0 3 .002q.98.356 2 .578v3.984c-3.105-.726-5-2.154-5-3.514m6 3.715v-3.993c1.157.186 2.328.28 3.5.278 1.172.003 2.343-.09 3.5-.275v3.99c-2.318.38-4.682.38-7 0m13-3.715c0 1.36-1.895 2.788-5 3.514v-3.98c2.204-.486 3.969-1.322 5-2.375z" /></svg>
