<svg xmlns="http://www.w3.org/2000/svg" viewBox="0 0 32 32" fill="currentColor"><path d="M30.286 13.638c-.082.67-.12 1.346-.228 2.015-.604 3.747-2.136 7.056-4.641 9.914-1.539 1.755-3.401 3.09-5.416 4.236-1.196.68-2.374 1.39-3.553 2.1-.215.13-.379.13-.594-.002-1.92-1.176-3.934-2.2-5.773-3.499-4.074-2.879-6.556-6.827-7.639-11.673-.323-1.449-.446-2.921-.442-4.406.007-2.283.001-4.566.003-6.849 0-.417.003-.419.415-.427 1.12-.022 2.167-.249 3.044-1.013.952-.83 1.42-1.88 1.473-3.128.012-.302.015-.604.022-.906h18.389c.053.466.008.934.065 1.403.208 1.709 1.544 3.18 3.23 3.52.543.11 1.096.102 1.646.145v8.571zM16.149 1.898c-2.335 0-4.67.004-7.005-.006-.271-.001-.367.086-.436.35-.607 2.333-2.073 3.85-4.392 4.518-.275.08-.36.19-.359.468.011 1.824.01 3.649.005 5.473a16.3 16.3 0 0 0 .326 3.353c.922 4.469 3.169 8.098 6.902 10.755 1.512 1.077 3.173 1.92 4.756 2.886.17.104.31.059.464-.033 1.227-.73 2.476-1.424 3.682-2.186 5.277-3.334 7.957-8.18 8.227-14.372.085-1.957.01-3.92.022-5.88.002-.278-.085-.385-.361-.465-2.302-.668-3.775-2.169-4.382-4.49-.077-.297-.186-.378-.477-.377-2.325.01-4.649.006-6.973.006" /><path d="M8.446 19.627c-.026-.632.634-.827 1.078-1.101.704-.354.915.394 1.178.21.78-.402 1.493-1.145 2.422-1.079 1.045.05 3.649.53 3.416 1.949.891-.41 1.766-.97 2.657-1.42.44-.235.892-.248 1.317.045.636.42.49 1.306-.154 1.637-1.31.787-2.62 1.57-3.927 2.361-.479.29-.974.341-1.507.189-.808-.23-1.618-.448-2.428-.67-.476-.17.152.616-.562.993-.61.393-1.372.852-1.794-.037-.534-1.038-1.27-1.993-1.696-3.077m4.716-1.467c-.893-.03-1.484.67-2.235 1.035-.075.045-.097.084-.048.168q.548.94 1.09 1.883c.082.197.308-.129.557.002 1 .16 2.817 1.124 3.654.578 1.362-.851 2.783-1.623 4.121-2.507.491-.517-.385-1.031-.834-.696-.893.48-1.785.964-2.668 1.461a1.7 1.7 0 0 1-.891.224c-.406-.019-2.204-.238-2.25-.666-.005-.188.149-.29.354-.228.598.098 1.43.632 1.958.182.15-.151.159-.284.02-.445-.744-.707-1.88-.914-2.827-.99zm-3.28.784c-.218.103-1.107.455-.884.758.537.948 1.09 1.888 1.632 2.833.133.23.249.265.466.142.261-.203.959-.337.68-.776-.53-.922-1.065-1.84-1.595-2.762-.062-.107-.128-.206-.3-.195M21.156 7.065c.443-.134.81.105 1.003.501.502.887 1.018 1.767 1.527 2.65.495.77-.31 1.219-.917 1.514-.753.399-.877-.399-1.185-.205-.417.258-.847.496-1.256.768-.958.787-4.941-.103-4.57-1.644-.902.416-1.77.973-2.668 1.425-.433.23-.88.245-1.302-.041-.514-.348-.567-1.007-.126-1.441 1.351-.923 2.814-1.692 4.2-2.566 1.133-.708 2.697.279 3.918.479.5.187-.14-.605.562-.982.268-.16.542-.307.814-.459M19.14 12.12c.909.034 1.496-.675 2.259-1.044.078-.046.071-.09.032-.16q-.544-.932-1.08-1.869c-.104-.216-.321.117-.536-.006-1.005-.16-2.854-1.133-3.686-.585-1.362.851-2.784 1.62-4.121 2.507-.496.54.416 1.032.866.68 1.025-.52 1.991-1.168 3.045-1.618.352-.164 2.935.165 2.725.696-.043.175-.255.194-.425.123-.586-.099-1.377-.61-1.89-.146-.135.141-.143.27-.018.42.737.718 1.89.926 2.829 1.002m4.204-1.414c-.472-1.035-1.147-1.997-1.691-3.005-.255-.425-.72.124-1.023.24-.178.109-.212.235-.108.415q.81 1.41 1.627 2.816c.104.18.234.218.413.12.248-.186.69-.264.781-.586" /><path d="M16.3 12.379c3.649.057 3.641 5.455.017 5.549-3.628-.006-3.665-5.535-.017-5.55m-2.272 2.76c-.007 2.989 4.53 2.983 4.545.031-.034-3.099-4.572-2.943-4.545-.031M9.692 19.353c.219-.02.682.777.352.875-.326.154-.439-.322-.576-.526a.235.235 0 0 1 .224-.348M22.395 10.025c.225.008.668.743.356.872-.319.163-.453-.315-.582-.521-.083-.172.028-.348.226-.351" /><path d="M16.297 13.322c.383-.019.131.433.437.51.308.102.835.686.436.932-.438.153-.387-.86-1.148-.435-.38.276.073.574.38.572.48.032.99.393.93.92-.05.718-.785.52-.78.933.004.136-.101.22-.238.22-.376-.005-.091-.464-.453-.523-.337-.09-.852-.715-.431-.964.132-.05.27.012.316.175.127.68 1.613.378.894-.189-.266-.125-.588-.076-.842-.244-.56-.27-.537-1.13.04-1.363.41-.111.083-.5.46-.544" /></svg>
