<svg xmlns="http://www.w3.org/2000/svg" viewBox="0 0 19 16" fill="none"><path fill="currentColor" fill-rule="evenodd" d="M12.308 2.71h3.502a.57.57 0 0 1 .559.57.57.57 0 0 1-.559.57h-3.502a1.14 1.14 0 0 0-.918.469.568.568 0 1 1-.918-.672 2.28 2.28 0 0 1 1.836-.938m4.072 3.043a.57.57 0 0 1-.57.57h-3.502a1.14 1.14 0 0 0-.919.471.57.57 0 1 1-.918-.672 2.28 2.28 0 0 1 1.837-.94h3.502a.57.57 0 0 1 .57.57m0 2.475a.57.57 0 0 1-.57.57h-3.502a1.14 1.14 0 0 0-.919.472.568.568 0 0 1-1.011-.472.6.6 0 0 1 .093-.2 2.28 2.28 0 0 1 1.836-.94h3.503a.57.57 0 0 1 .57.57m0 2.475a.57.57 0 0 1-.57.57h-3.502a1.14 1.14 0 0 0-.919.47.569.569 0 1 1-.918-.673 2.29 2.29 0 0 1 1.836-.937h3.503a.57.57 0 0 1 .57.57M7.57 3.647a.57.57 0 0 1-.755.826.6.6 0 0 1-.163-.154 1.15 1.15 0 0 0-.918-.469H2.233a.57.57 0 0 1-.559-.57.57.57 0 0 1 .559-.57h3.502a2.28 2.28 0 0 1 1.836.937m0 2.475a.57.57 0 0 1-.755.826.6.6 0 0 1-.163-.154 1.14 1.14 0 0 0-.918-.47H2.233a.57.57 0 0 1-.57-.571.57.57 0 0 1 .57-.57h3.502a2.28 2.28 0 0 1 1.836.939m0 2.475a.57.57 0 0 1-.123.795.567.567 0 0 1-.795-.122 1.14 1.14 0 0 0-.918-.472H2.233a.57.57 0 0 1-.57-.57.57.57 0 0 1 .57-.57h3.502a2.28 2.28 0 0 1 1.836.94m0 2.474a.57.57 0 1 1-.918.672 1.15 1.15 0 0 0-.918-.468H2.233a.57.57 0 0 1-.57-.57.57.57 0 0 1 .57-.571h3.502a2.28 2.28 0 0 1 1.836.937m9.498 1.915V1.141h-5.171c-.59 0-1.156.236-1.573.654a2.24 2.24 0 0 0-.652 1.576v10.436a3.5 3.5 0 0 1 2.225-.822zm-8.534.821V3.372c-.001-.592-.236-1.159-.653-1.577a2.23 2.23 0 0 0-1.573-.654H1.138v11.844H6.31a3.5 3.5 0 0 1 2.225.822M18.207.57a.57.57 0 0 0-.57-.57h-5.74a3.36 3.36 0 0 0-2.794 1.497A3.37 3.37 0 0 0 6.31 0H.57A.57.57 0 0 0 0 .57v12.986a.57.57 0 0 0 .57.57h5.74c.93 0 1.806.598 2.285 1.558a.57.57 0 0 0 1.019 0c.478-.96 1.353-1.558 2.286-1.558h5.738a.567.567 0 0 0 .569-.57z" clip-rule="evenodd" /></svg>
