<svg xmlns="http://www.w3.org/2000/svg" viewBox="0 0 147 43" fill="none"><path fill="#323232" d="M141.556 42.525H5.444C2.451 42.525 0 40.132 0 37.21V5.316C0 2.394 2.451 0 5.444 0h136.112C144.549 0 147 2.394 147 5.316V37.21c0 2.922-2.451 5.315-5.444 5.315" /><path fill="#A7A7A7" d="M141.556.852c2.52 0 4.572 2.003 4.572 4.464V37.21c0 2.46-2.052 4.464-4.572 4.464H5.444c-2.52 0-4.572-2.003-4.572-4.464V5.316C.872 2.855 2.924.852 5.444.852zm0-.852H5.444C2.451 0 0 2.394 0 5.316V37.21c0 2.922 2.451 5.315 5.444 5.315h136.112c2.993 0 5.444-2.393 5.444-5.315V5.316C147 2.394 144.549 0 141.556 0" /><path fill="#fff" stroke="#fff" stroke-miterlimit="10" stroke-width=".16" d="M51.632 10.89c0 .889-.272 1.6-.808 2.13q-.927.944-2.404.945c-.94 0-1.743-.322-2.402-.956-.66-.643-.99-1.432-.99-2.377q0-1.416.99-2.372.99-.96 2.402-.961c.468 0 .915.094 1.34.27s.771.416 1.022.71l-.57.561q-.652-.753-1.792-.752-1.028-.001-1.786.706-.75.71-.75 1.838c0 .752.25 1.37.75 1.843a2.55 2.55 0 0 0 1.786.706c.728 0 1.34-.24 1.824-.711q.478-.469.547-1.293h-2.37v-.768h3.162c.038.166.05.326.05.482ZM56.65 8.227h-2.97v2.02h2.678v.768H53.68v2.02h2.972v.783h-3.813V7.444h3.813zM60.192 13.818h-.84v-5.59h-1.823v-.784h4.487v.783h-1.824zM65.264 13.818V7.444h.84v6.374zM69.826 13.818h-.834v-5.59h-1.83v-.784h4.494v.783h-1.83zM80.152 12.999q-.966.966-2.393.966-1.434 0-2.398-.966t-.963-2.367q0-1.402.963-2.367.964-.967 2.398-.966c.946 0 1.743.321 2.387.971.648.649.968 1.433.968 2.362q0 1.401-.962 2.367Zm-4.17-.535q.726.716 1.777.717c.697 0 1.292-.24 1.77-.717q.727-.717.729-1.832-.002-1.116-.728-1.833c-.48-.477-1.074-.716-1.771-.716q-1.051.001-1.776.716-.727.717-.729 1.833.001 1.115.729 1.832ZM82.294 13.818V7.444h1.02l3.175 4.957h.037l-.037-1.225V7.444h.84v6.374h-.877l-3.324-5.202h-.036l.036 1.231v3.97z" /><path fill="#fff" d="M74.191 23.126c-2.557 0-4.647 1.9-4.647 4.523 0 2.6 2.09 4.52 4.647 4.52 2.563 0 4.653-1.92 4.653-4.52 0-2.622-2.09-4.523-4.653-4.523m0 7.263c-1.403 0-2.61-1.131-2.61-2.74 0-1.63 1.207-2.742 2.61-2.742 1.404 0 2.616 1.111 2.616 2.742 0 1.609-1.212 2.74-2.616 2.74m-10.139-7.263c-2.563 0-4.646 1.9-4.646 4.523 0 2.6 2.084 4.52 4.646 4.52s4.647-1.92 4.647-4.52c0-2.622-2.085-4.523-4.647-4.523m0 7.263c-1.404 0-2.616-1.131-2.616-2.74 0-1.63 1.212-2.742 2.616-2.742s2.611 1.111 2.611 2.742c0 1.609-1.207 2.74-2.61 2.74m-12.064-5.876v1.921h4.7c-.138 1.074-.506 1.863-1.069 2.413-.686.665-1.755 1.402-3.631 1.402-2.893 0-5.158-2.279-5.158-5.103s2.265-5.103 5.158-5.103c1.563 0 2.701.597 3.541 1.37l1.387-1.354c-1.174-1.095-2.737-1.936-4.928-1.936-3.967 0-7.3 3.15-7.3 7.023s3.333 7.024 7.3 7.024c2.143 0 3.754-.686 5.02-1.972 1.296-1.267 1.7-3.048 1.7-4.486 0-.446-.037-.857-.105-1.2zm49.334 1.49c-.382-1.012-1.562-2.877-3.966-2.877-2.382 0-4.365 1.833-4.365 4.523 0 2.533 1.963 4.52 4.594 4.52a4.62 4.62 0 0 0 3.86-2.003l-1.579-1.028c-.527.753-1.244 1.25-2.281 1.25-1.03 0-1.77-.46-2.243-1.37l6.194-2.501zm-6.315 1.505a2.51 2.51 0 0 1 2.418-2.637c.809 0 1.495.395 1.724.96zm-5.035 4.387h2.036v-13.29h-2.036zm-3.335-7.761h-.068c-.457-.53-1.33-1.008-2.435-1.008-2.32 0-4.44 1.988-4.44 4.537 0 2.535 2.12 4.507 4.44 4.507 1.106 0 1.978-.483 2.435-1.028h.068v.649c0 1.729-.946 2.658-2.471 2.658-1.245 0-2.016-.877-2.335-1.615l-1.77.722c.51 1.198 1.861 2.674 4.105 2.674 2.387 0 4.401-1.372 4.401-4.709v-8.12h-1.93zm-2.329 6.255c-1.403 0-2.577-1.147-2.577-2.726 0-1.593 1.174-2.756 2.578-2.756 1.382 0 2.473 1.163 2.473 2.756 0 1.58-1.09 2.726-2.474 2.726m26.548-11.783h-4.87v13.289h2.03v-5.036h2.84c2.255 0 4.467-1.593 4.467-4.127s-2.217-4.126-4.467-4.126m.053 6.405h-2.893v-4.557h2.893a2.334 2.334 0 0 1 2.382 2.278 2.347 2.347 0 0 1-2.382 2.279m12.553-1.91c-1.467 0-2.993.633-3.62 2.035l1.802.737c.388-.737 1.101-.977 1.855-.977 1.053 0 2.122.619 2.138 1.71v.14c-.367-.208-1.154-.515-2.122-.515-1.941 0-3.918 1.043-3.918 2.99 0 1.78 1.589 2.927 3.377 2.927 1.366 0 2.12-.602 2.594-1.302h.069v1.027h1.962v-5.097c0-2.357-1.802-3.675-4.137-3.675m-.245 7.283c-.664 0-1.59-.322-1.59-1.126 0-1.028 1.155-1.423 2.154-1.423.894 0 1.313.192 1.856.446-.159 1.23-1.244 2.103-2.42 2.103m11.527-6.992-2.334 5.761h-.069l-2.414-5.76h-2.19l3.626 8.05-2.068 4.48h2.122l5.587-12.53zm-18.305 8.503h2.036v-13.29h-2.036z" /><path fill="url(#get-it-on-google-play_a)" d="M11.363 8.015c-.32.327-.505.836-.505 1.495v23.511c0 .66.185 1.168.505 1.495l.079.072 13.494-13.17v-.31L11.442 7.937z" /><path fill="url(#get-it-on-google-play_b)" d="m29.429 25.81-4.493-4.391v-.311l4.498-4.393.1.058 5.328 2.96c1.52.839 1.52 2.221 0 3.066l-5.327 2.954z" /><path fill="url(#get-it-on-google-play_c)" d="m29.535 25.753-4.6-4.49-13.572 13.253c.505.518 1.328.58 2.264.063z" /><path fill="url(#get-it-on-google-play_d)" d="M29.535 16.772 13.627 7.947c-.936-.513-1.76-.45-2.264.068l13.573 13.248z" /><defs></defs></svg>
