<svg xmlns="http://www.w3.org/2000/svg" viewBox="0 0 32 32" fill="none"><path stroke="currentColor" stroke-linecap="round" stroke-linejoin="round" stroke-width="1.5" d="M22.658 12.017h.01m0-2.672V6.006M10 29.334H6.287c-.43 0-.864-.061-1.26-.23-1.288-.554-1.942-1.286-2.246-1.743a.72.72 0 0 1 .04-.841c1.493-1.984 4.954-3.182 7.178-3.182m.007 5.996h3.71c.433 0 .865-.061 1.26-.23 1.29-.554 1.943-1.286 2.249-1.743a.72.72 0 0 0-.04-.841c-1.494-1.984-4.955-3.182-7.179-3.182M29.33 9.056c0 3.528-2.987 6.39-6.672 6.39q-.651 0-1.29-.12c-.307-.058-.46-.086-.567-.07s-.259.096-.56.258a4.33 4.33 0 0 1-2.819.44c.365-.452.613-.992.724-1.57.067-.354-.099-.697-.347-.95a6.23 6.23 0 0 1-1.813-4.378c0-3.528 2.987-6.39 6.672-6.39s6.672 2.862 6.672 6.39m-15.62 7.33a3.7 3.7 0 0 1-3.704 3.695A3.703 3.703 0 0 1 6.3 16.385a3.7 3.7 0 0 1 3.707-3.697 3.7 3.7 0 0 1 3.704 3.697" /></svg>
