<svg xmlns="http://www.w3.org/2000/svg" viewBox="0 0 26 26" fill="none"><path fill="currentColor" d="M.011 14.816c.03-.528-.066-1.186.043-1.836.14-.84.601-1.473 1.346-1.89.144-.08.209-.167.22-.337C1.766 8.237 2.647 6 4.272 4.076 6.075 1.941 8.36.606 11.124.16c3.191-.515 6.123.17 8.714 2.118 2.437 1.83 3.908 4.273 4.429 7.28.067.39.121.785.123 1.181 0 .165.054.263.203.347.923.527 1.395 1.33 1.403 2.394.007.975.004 1.948 0 2.922-.003 1.021-.441 1.81-1.306 2.348-.194.12-.266.253-.264.479.004.688.045 1.377-.129 2.056a3.794 3.794 0 0 1-3.656 2.852q-.814.002-1.63 0c-.124 0-.23.005-.298.143-.394.802-1.071 1.132-1.935 1.13-.62-.002-1.24.022-1.86-.027a1.92 1.92 0 0 1-1.764-1.815c-.05-.915.641-1.773 1.562-1.943.445-.081.894-.04 1.34-.04.422 0 .845-.041 1.264.039.594.114 1.049.431 1.33.969.092.178.201.248.402.244.56-.012 1.12.005 1.68-.01 1.298-.031 2.367-1.113 2.392-2.414.007-.344-.005-.69.004-1.034.004-.162-.043-.239-.213-.287-.9-.25-1.38-.886-1.382-1.82q-.006-2.326 0-4.653c.001-.914.453-1.534 1.334-1.802.243-.075.22-.228.204-.398-.116-1.159-.392-2.28-.912-3.322-1.587-3.182-4.127-5.135-7.643-5.689-4.16-.655-8.231 1.348-10.328 5.037-.683 1.2-1.082 2.492-1.248 3.859-.051.416-.047.416.339.549.717.247 1.187.884 1.192 1.678a256 256 0 0 1-.001 4.834c-.015 1.228-1.066 1.996-2.305 1.728a2.69 2.69 0 0 1-2.153-2.648c-.002-.5 0-1 0-1.626zm3.158.124v-1.161c0-.395.003-.792 0-1.187-.004-.415-.24-.611-.65-.545-.712.115-1.192.646-1.199 1.366a142 142 0 0 0 0 3.07c.007.696.477 1.23 1.155 1.354.454.083.694-.112.696-.572q.002-1.16 0-2.324zm19.671-.025v2.348c0 .46.242.656.695.571.68-.125 1.148-.658 1.155-1.353a142 142 0 0 0 0-3.071c-.007-.702-.457-1.216-1.15-1.353-.46-.091-.7.098-.701.56-.003.765 0 1.531 0 2.297zm-6.805 7.973c-.327 0-.654-.007-.98.002-.343.01-.577.24-.592.559-.015.327.207.631.539.642q1.016.037 2.036 0c.352-.012.58-.315.556-.652-.021-.317-.278-.545-.632-.552-.31-.005-.62 0-.927 0" /><path fill="currentColor" d="M13 6.013h3.876c1.662 0 2.806 1.148 2.809 2.815v5.04c-.002 1.684-1.138 2.815-2.828 2.816-1 0-1.999.006-2.998-.004a.66.66 0 0 0-.522.212c-.689.7-1.383 1.396-2.086 2.08-.62.601-1.544.502-2.017-.2a1.3 1.3 0 0 1-.22-.732c0-.37-.006-.74 0-1.111.005-.173-.057-.234-.234-.254-1.489-.18-2.451-1.27-2.452-2.77a1581 1581 0 0 1 0-5.117c.002-1.614 1.16-2.773 2.77-2.775q1.95-.002 3.901 0m-2.685 11.993c.145-.028.195-.118.259-.181.673-.668 1.356-1.325 2.008-2.011.305-.322.641-.446 1.077-.439 1.137.018 2.273.013 3.41 0 .706-.007 1.294-.566 1.299-1.25q.018-2.778 0-5.557c-.005-.656-.596-1.24-1.254-1.242q-4.11-.014-8.218 0c-.66.001-1.253.584-1.257 1.24a414 414 0 0 0 0 5.556c.004.662.58 1.22 1.246 1.252.171.008.344.004.517.006.677.002.913.239.915.923v1.701z" /><path fill="currentColor" d="M9.06 11.433a.93.93 0 0 1 .922-.923c.521-.003.968.445.955.957a.96.96 0 0 1-.96.923.936.936 0 0 1-.916-.958zM16.018 10.51a.93.93 0 0 1 .931.94.94.94 0 0 1-.933.94.96.96 0 0 1-.943-.941.96.96 0 0 1 .944-.94zM13.016 10.512a.95.95 0 0 1 .927.95.954.954 0 0 1-.952.928.953.953 0 0 1-.927-.951.95.95 0 0 1 .95-.927z" /></svg>
