<svg xmlns="http://www.w3.org/2000/svg" viewBox="0 0 33 33" fill="none"><path fill="#00adef" d="M18.916 33c-.577-.283-.798-.75-.788-1.386.021-1.265.013-2.53.004-3.796-.006-.686.18-1.23.924-1.42.198-.052.176-.222.173-.37-.016-.796.01-1.59.253-2.355.476-1.497 1.31-2.678 2.842-3.276 1.107-.433 2.082-1.093 2.977-1.876.866-.758 1.835-.926 2.89-.433.193.09.279.063.361-.134.338-.811.69-1.617 1.038-2.424.23-.534.617-.896 1.177-1.06a1.77 1.77 0 0 1 2.11.98c.044.098.082.198.123.297v.901c-.722 1.59-1.45 3.177-2.161 4.77a6.8 6.8 0 0 1-1.418 2.087c-1.013 1.001-2.013 2.017-3.025 3.019-.149.147-.212.267-.085.467.128.203.146.442.146.683-.003 1.318-.016 2.637.004 3.955.01.635-.2 1.104-.793 1.372h-6.753zm3.797-6.64c.622 0 1.244-.01 1.865.004.247.006.42-.078.591-.251.986-1 1.966-2.009 2.98-2.98.772-.739 1.374-1.571 1.795-2.558.576-1.352 1.209-2.678 1.81-4.019.19-.424.072-.78-.276-.928-.339-.145-.651.007-.837.42-.185.412-.351.83-.536 1.241-.442.987-.759 2.042-1.454 2.894-.943 1.158-2.068 2.144-3.117 3.203-.243.245-.581.207-.805-.031-.237-.253-.223-.568.062-.857.67-.68 1.348-1.352 2.021-2.028.311-.311.63-.614.897-.967.198-.261.188-.308-.123-.423-.57-.21-1.075-.079-1.518.32a11.7 11.7 0 0 1-3.478 2.16c-.534.213-.951.57-1.29 1.03-.752 1.019-.936 2.183-.894 3.415.01.29.108.366.38.36.642-.015 1.285-.005 1.928-.005m-.389 1.184c-.878 0-1.757.009-2.635-.005-.27-.004-.38.062-.377.357q.02 1.817.002 3.635c-.003.261.075.355.346.353q2.634-.015 5.27 0c.273.002.348-.096.345-.355q-.015-1.818 0-3.635c.002-.261-.077-.359-.348-.354-.867.013-1.735.005-2.602.005M.072 15.81c.073-.166.129-.344.223-.498.373-.61.917-.915 1.638-.873.676.039 1.195.359 1.482.97.382.815.727 1.649 1.07 2.481.099.237.183.303.444.185 1.005-.457 1.956-.318 2.785.4a12.5 12.5 0 0 0 3.318 2.055c1.387.592 2.115 1.76 2.555 3.138.24.754.28 1.538.251 2.324-.009.25.065.376.326.456.525.163.762.583.767 1.11.013 1.437.01 2.875.001 4.312-.003.54-.312.894-.776 1.13H7.405c-.593-.267-.804-.736-.793-1.372.02-1.318.007-2.636.004-3.954 0-.24.016-.479.146-.681.126-.199.066-.32-.084-.468-.868-.858-1.71-1.744-2.596-2.584-.87-.823-1.546-1.76-2.01-2.869-.634-1.51-1.38-2.971-2-4.489zm10.281 10.55c.664 0 1.329-.003 1.993 0 .178.001.315-.017.315-.252-.002-.633.031-1.27-.137-1.887-.304-1.112-.806-2.11-1.92-2.596-1.338-.584-2.58-1.299-3.669-2.279-.392-.353-.864-.457-1.378-.285-.383.128-.396.182-.153.496.297.383.654.709.993 1.051.634.64 1.277 1.27 1.905 1.915.353.363.239.877-.208 1.006-.27.078-.476-.044-.66-.23-.643-.647-1.268-1.312-1.937-1.93a8.4 8.4 0 0 1-2.184-3.252c-.278-.731-.607-1.443-.928-2.156-.15-.335-.46-.459-.765-.345-.319.117-.468.43-.36.79.052.173.135.338.21.504.62 1.367 1.243 2.732 1.86 4.1.257.573.582 1.1 1.026 1.546 1.195 1.2 2.396 2.395 3.588 3.598a.65.65 0 0 0 .511.21c.632-.01 1.265-.004 1.897-.004zm.416 5.52c.889 0 1.778-.006 2.667.004.233.002.322-.07.321-.313q-.014-1.85 0-3.699c.002-.254-.086-.333-.335-.331q-2.634.011-5.27 0c-.26-.002-.359.074-.357.345q.016 1.834 0 3.667c-.002.256.09.334.338.33.878-.01 1.756-.004 2.635-.004zM16.793.037c1.145.51 2.287 1.023 3.434 1.528q2.308 1.018 4.623 2.02c.364.158.514.41.514.8-.007 2.822.02 5.643-.013 8.463-.024 1.971-.822 3.611-2.405 4.798-1.895 1.42-3.831 2.786-5.754 4.169-.444.319-.87.316-1.312 0-1.914-1.378-3.84-2.738-5.729-4.149-1.615-1.207-2.415-2.871-2.433-4.881-.024-2.789-.002-5.578-.01-8.366-.002-.418.154-.673.545-.842 2.575-1.116 5.143-2.247 7.714-3.375.107-.047.208-.108.312-.163h.514zm7.383 9.019c0-1.384-.005-2.767.004-4.15.002-.235-.067-.368-.292-.466a1206 1206 0 0 1-7.006-3.068c-.249-.11-.457-.1-.702.008a1177 1177 0 0 1-6.977 3.054c-.235.102-.312.235-.31.485.008 2.65-.008 5.299.01 7.948.01 1.618.69 2.933 1.983 3.891 1.79 1.328 3.611 2.613 5.416 3.922.161.117.284.137.456.012 1.812-1.316 3.644-2.606 5.44-3.943 1.313-.976 1.968-2.317 1.976-3.961.007-1.245.002-2.488.002-3.733" /><path fill="#00adef" d="M21.178 30.314c-.127-.016-.257-.019-.38-.05a.573.573 0 0 1-.446-.621.57.57 0 0 1 .533-.515 4 4 0 0 1 .546-.006c.363.015.613.244.626.564.012.31-.23.564-.589.608-.095.011-.192.001-.289.001zM11.857 29.114c.128.006.26-.004.384.022.283.059.462.237.476.53.014.286-.123.498-.404.587-.26.082-.532.071-.796.023-.319-.058-.525-.326-.5-.613.027-.3.255-.514.583-.54.084-.007.17-.001.257-.001zM9.903 9.331c0-1.137.011-2.274-.006-3.411-.007-.468.163-.749.605-.937a334 334 0 0 0 5.505-2.412c.377-.169.695-.164 1.069.003A422 422 0 0 0 22.61 5c.402.173.564.438.563.868-.008 2.285.005 4.57-.008 6.854-.007 1.366-.561 2.473-1.67 3.28-1.473 1.072-2.953 2.135-4.432 3.2-.456.328-.604.32-1.063-.01-1.408-1.017-2.802-2.053-4.228-3.043-1.288-.896-1.897-2.105-1.873-3.664.016-1.051.003-2.102.003-3.154m12.082.304c0-1.094-.008-2.187.006-3.281.003-.255-.087-.387-.316-.486a817 817 0 0 1-4.857-2.127.64.64 0 0 0-.552 0 637 637 0 0 1-4.858 2.124c-.243.104-.328.246-.326.51q.013 3.169.004 6.338-.004 1.478 1.183 2.34c1.343.978 2.693 1.945 4.036 2.922.163.12.286.131.456.008 1.36-.991 2.73-1.967 4.086-2.962.758-.557 1.136-1.321 1.138-2.266q.002-1.56 0-3.121z" /><path fill="#00adef" d="M15.425 14.347c-.173.004-.306-.085-.436-.183q-1.005-.751-2.005-1.507c-.35-.265-.417-.595-.193-.886.213-.278.535-.302.882-.051.417.302.825.615 1.237.924q.383.288.64-.099l3.64-5.462c.071-.107.14-.219.23-.31a.546.546 0 0 1 .731-.067.57.57 0 0 1 .198.71c-.042.098-.1.19-.16.279q-2.068 3.107-4.137 6.214c-.152.229-.316.438-.627.438" /></svg>
