<svg xmlns="http://www.w3.org/2000/svg" viewBox="0 0 30 30" fill="none"><path fill="#00adef" d="M15 8.25A6.75 6.75 0 1 0 21.75 15 6.757 6.757 0 0 0 15 8.25m0 11.25a4.5 4.5 0 1 1 0-9 4.5 4.5 0 0 1 0 9M21.75.375H8.25A7.883 7.883 0 0 0 .375 8.25v13.5a7.884 7.884 0 0 0 7.875 7.875h13.5a7.883 7.883 0 0 0 7.875-7.875V8.25A7.883 7.883 0 0 0 21.75.375m5.625 21.375a5.625 5.625 0 0 1-5.625 5.625H8.25a5.625 5.625 0 0 1-5.625-5.625V8.25A5.625 5.625 0 0 1 8.25 2.625h13.5a5.625 5.625 0 0 1 5.625 5.625zM24 7.688a1.688 1.688 0 1 1-3.375 0 1.688 1.688 0 0 1 3.375 0" /></svg>
