<svg xmlns="http://www.w3.org/2000/svg" viewBox="0 0 30 30" fill="none"><path fill="currentColor" d="M27.375.375H2.625a2.25 2.25 0 0 0-2.25 2.25v24.75a2.25 2.25 0 0 0 2.25 2.25h24.75a2.25 2.25 0 0 0 2.25-2.25V2.625a2.25 2.25 0 0 0-2.25-2.25m0 27H2.625V2.625h24.75zM10.5 12.75v9a1.125 1.125 0 1 1-2.25 0v-9a1.125 1.125 0 0 1 2.25 0m12.375 3.938v5.062a1.125 1.125 0 1 1-2.25 0v-5.062a2.812 2.812 0 1 0-5.625 0v5.062a1.125 1.125 0 1 1-2.25 0v-9a1.125 1.125 0 0 1 2.22-.25 5.062 5.062 0 0 1 7.905 4.188M11.063 8.813a1.688 1.688 0 1 1-3.376 0 1.688 1.688 0 0 1 3.375 0" /></svg>
