<svg xmlns="http://www.w3.org/2000/svg" viewBox="0 0 33 33" fill="none"><path fill="currentColor" d="M32.992 9.222c-.168 1.043-.457 2.045-1.014 2.954-1.279 2.086-3.117 3.33-5.545 3.691a6 6 0 0 1-1.087.054c-.226-.006-.3.08-.296.3.01.589.003 1.178.003 1.767 0 3.233-.042 6.467.013 9.699.042 2.457-1.913 4.457-4.429 4.436-5.4-.045-10.802-.011-16.203-.012-2.197 0-3.933-1.452-4.29-3.613-.107-.645-.025-1.304-.037-1.957a30 30 0 0 1 0-.932c.005-.385.164-.57.54-.63.127-.02.257-.02.385-.02 1.005-.001 2.01-.009 3.015.004.28.004.403-.087.363-.369q-.001-.031 0-.064.041-7.417.085-14.836c.006-1.07.029-2.14.042-3.21.007-.562.192-.753.751-.753 4.203 0 8.407-.004 12.61.006.293 0 .42-.098.542-.362 1.194-2.611 3.207-4.156 6.053-4.594.052-.008.103-.027.154-.04h1.605c.05.013.1.033.153.041q3.778.57 5.68 3.887c.49.855.746 1.788.906 2.753v1.799zm-21.15-2.36H6.1c-.431 0-.43 0-.434.416-.021 1.862-.024 3.725-.045 5.587-.045 3.876-.016 7.751-.079 11.626-.008.466-.001.468.482.468h10.75c.16 0 .321.004.479.029.307.047.471.238.479.548.008.321-.005.643.005.964.02.651-.06 1.305.062 1.954.272 1.44 1.554 2.591 3.158 2.51 1.687-.084 2.955-1.39 2.961-3.009.014-3.95.004-7.9.01-11.851 0-.24-.087-.331-.315-.39-1.808-.47-3.266-1.461-4.348-2.988-.151-.211-.314-.278-.56-.277-1.659.008-3.317.005-4.975.004-.117 0-.239.008-.35-.02-.281-.068-.444-.248-.443-.55.002-.3.168-.478.45-.543.112-.027.233-.018.35-.018l4.365-.001c.356 0 .356-.002.233-.328a7.45 7.45 0 0 1-.427-3.722c.057-.409.06-.41-.353-.41h-5.712m20.043 1.48c.025-3.368-2.64-6.457-6.436-6.468-3.593-.011-6.455 2.808-6.471 6.437-.017 3.795 3.066 6.496 6.453 6.486a6.46 6.46 0 0 0 6.454-6.456zM17.957 30.98c-.673-.66-1.076-1.378-1.262-2.212-.159-.71-.072-1.43-.089-2.145-.012-.497-.003-.497-.486-.497H1.713l-.257.002c-.143 0-.22.067-.219.214.007.653-.07 1.312.03 1.957.25 1.625 1.514 2.678 3.18 2.68 4.375.004 8.75.001 13.125.001z" /><path fill="currentColor" d="M17.037 17.133h-3.305c-.161 0-.322-.003-.471-.073a.53.53 0 0 1-.326-.541c.012-.252.14-.43.383-.496a1.7 1.7 0 0 1 .443-.054q3.273-.004 6.546-.001c.562 0 .83.192.83.581 0 .391-.269.583-.827.584zM17.014 21.772h-3.4c-.438-.002-.674-.195-.678-.548-.004-.366.242-.579.69-.58q3.415-.003 6.83 0c.433 0 .674.205.68.556.007.368-.233.57-.69.571q-1.717.001-3.432 0M10.078 10.234c.946.002 1.745.78 1.739 1.694-.007.919-.805 1.683-1.754 1.68-.953-.005-1.738-.77-1.734-1.695s.793-1.682 1.749-1.68m.57 1.688a.57.57 0 0 0-.579-.553c-.299 0-.604.278-.605.55-.001.27.301.55.601.553a.57.57 0 0 0 .584-.55M10.073 18.235c-.962 0-1.745-.757-1.744-1.688.001-.922.8-1.69 1.753-1.685.925.005 1.727.78 1.735 1.679.008.922-.786 1.693-1.744 1.694m.576-1.68c.002-.304-.26-.552-.581-.55-.307 0-.599.267-.602.55-.003.281.287.546.598.545.327-.001.584-.24.585-.546M10.047 22.863c-.942-.005-1.72-.764-1.718-1.677.003-.92.812-1.706 1.747-1.693.948.012 1.759.807 1.74 1.707-.017.934-.799 1.668-1.77 1.664zm.023-2.204c-.333-.002-.606.24-.604.533.002.288.289.54.61.537.313-.003.567-.237.573-.528.006-.325-.223-.54-.579-.542M27.684 10.269c-.04.755-.473 1.464-1.34 1.859-.291.133-.474.26-.412.6.007.04-.005.085-.012.127-.057.314-.279.525-.555.532-.287.007-.587-.218-.566-.54.033-.477-.22-.65-.583-.85-.698-.385-1.027-1.036-1.103-1.817-.035-.348.182-.633.495-.682.31-.047.58.163.633.537.048.326.123.625.377.86a1.153 1.153 0 0 0 1.912-1.083 1.134 1.134 0 0 0-1.04-.897c-1.354-.091-2.176-.82-2.363-2.091-.13-.897.422-1.882 1.321-2.287.247-.112.33-.244.33-.504-.001-.446.23-.699.584-.695.342.005.57.25.566.678-.002.271.104.386.346.49.864.368 1.337 1.04 1.407 1.977.03.403-.18.658-.514.689-.318.03-.563-.212-.611-.604-.097-.786-.73-1.258-1.436-1.068-.562.151-.878.596-.85 1.197.026.545.394.948.958 1.04.263.043.534.052.79.122 1.007.277 1.67 1.17 1.666 2.41" /></svg>
