<svg xmlns="http://www.w3.org/2000/svg" viewBox="0 0 33 33" fill="none"><path stroke="#00adef" stroke-linecap="round" stroke-linejoin="round" stroke-width="2" d="M5.164 13.335c0-4.631 0-6.947 1.367-8.385 1.367-1.44 3.567-1.44 7.966-1.44h4c4.4 0 6.6 0 7.967 1.44 1.367 1.438 1.367 3.754 1.367 8.385v7.018c0 4.631 0 6.947-1.367 8.386s-3.567 1.438-7.967 1.438h-4c-4.4 0-6.6 0-7.966-1.438-1.367-1.44-1.367-3.755-1.367-8.386z" /><path stroke="#00ADEF" stroke-linecap="round" stroke-width="2" d="M18.5 15.51h4.667" /><path stroke="#00adef" stroke-linecap="round" stroke-linejoin="round" stroke-width="2" d="M9.828 16.844s.667 0 1.334 1.333c0 0 2.117-3.333 4-4" /><path stroke="#00ADEF" stroke-linecap="round" stroke-width="2" d="M18.5 23.51h4.667" /><path stroke="#00ADEF" stroke-linecap="round" stroke-linejoin="round" stroke-width="2" d="m11.164 3.51.11.658c.266 1.597.399 2.395.958 2.869.56.474 1.369.474 2.987.474h2.557c1.618 0 2.427 0 2.987-.474.559-.474.692-1.272.958-2.869l.11-.657" /><path fill="#00adef" fill-rule="evenodd" d="M11.164 23.51h1.333z" clip-rule="evenodd" /><path stroke="#00ADEF" stroke-linecap="round" stroke-linejoin="round" stroke-width="2" d="M11.164 23.51h1.333" /></svg>
