<svg xmlns="http://www.w3.org/2000/svg" viewBox="0 0 27 32" fill="currentColor"><path stroke="currentColor" d="m18.494 12.785.061-.002.06-.016h.016l.059.017.06.001a5.09 5.09 0 0 1 4.96 5.087 5.09 5.09 0 0 1-5.088 5.088 5.09 5.09 0 0 1-5.088-5.088c0-1.337.517-2.554 1.362-3.464l.061-.066.035-.083.006-.01.002-.001.008-.006.085-.035.066-.062a5.07 5.07 0 0 1 3.335-1.36ZM7.178 3.177l.066-.044.048-.06c.203-.255.513-.417.862-.417h9.402a1.1 1.1 0 0 1 1.1 1.1v6.893a.034.034 0 0 1-.034.034.034.034 0 0 1-.033-.034h-.5.5V3.755c0-.57-.462-1.033-1.033-1.033H8.154c-.562 0-1.021.45-1.033 1.011L7.087 5.34a1.1 1.1 0 0 1-1.1 1.077H4.405c-.241 0-.464.083-.64.222l-.02.015-.016.017h-.001l-.02.015-.017.017c-.196.187-.32.453-.32.747v14.394c0 .571.463 1.034 1.034 1.034h9.069c.017 0 .033.015.033.033a.034.034 0 0 1-.034.033H4.406a1.1 1.1 0 0 1-1.1-1.1V7.45c0-.332.146-.629.38-.831l.012-.011.011-.011 3.46-3.41v-.001l.009-.007zm8.246 11.544-.397-.398-.349.442a5.024 5.024 0 0 0 3.944 8.129 5.025 5.025 0 0 0 4.988-4.43l.066-.559h-3.43l-.1.372a1.578 1.578 0 1 1-2.889-1.196l.195-.333-.272-.272zm3.79-1.836-.558-.066v3.43l.372.099c.544.144.975.574 1.119 1.119l.099.372h3.43l-.066-.559a5.026 5.026 0 0 0-4.396-4.395Zm-.625.496v-.562l-.558.066a5 5 0 0 0-2.516 1.043l-.441.348.398.398 1.755 1.755.272.273.333-.195q.18-.105.385-.16l.372-.098V13.38ZM7.035 4.615l.026-1.23-.877.863-1.262 1.245-.869.856h1.934c.562 0 1.021-.449 1.033-1.011zm13.098 13.257a1.51 1.51 0 1 0-3.022.001 1.51 1.51 0 0 0 3.022-.001Zm-9.06-1.835H7.323a.034.034 0 0 1-.033-.034c0-.018.016-.033.033-.033h3.749c.018 0 .033.015.033.033a.034.034 0 0 1-.034.034Zm0-3.202H7.323a.034.034 0 0 1-.033-.033c0-.018.015-.033.033-.033h3.749c.018 0 .033.015.033.033a.034.034 0 0 1-.034.033ZM14.82 9.63H7.324a.034.034 0 0 1-.033-.034c0-.018.015-.033.033-.033h7.497c.018 0 .033.015.033.033a.034.034 0 0 1-.033.034Z" /></svg>
