<svg xmlns="http://www.w3.org/2000/svg" viewBox="0 0 32 32" fill="none"><path fill="currentColor" d="M28.153 16.34c-.294.708-.56.886-1.329.886h-3.36c-.8 0-1.227-.432-1.228-1.237-.001-.975.024-1.95-.007-2.924-.041-1.274 1.136-1.54 1.944-1.13.7.356 1.325.381 2.018.009.643-.347 1.723-.267 1.961.735zm-2.974.1q.874.001 1.748 0c.37-.002.446-.078.447-.45v-2.921c0-.47-.219-.633-.678-.504-.095.027-.184.079-.272.125-.817.436-1.634.444-2.45 0-.129-.07-.255-.138-.405-.151-.415-.036-.547.081-.548.496q-.001 1.473 0 2.948c0 .395.064.455.465.456q.846.002 1.692 0zM20.011 9.142c0 .847-.012 1.695.005 2.541.012.642-.211 1.15-.735 1.53a4 4 0 0 0-.453.394c-.055.052-.128.123-.079.213.042.075.13.052.2.053q1.093.002 2.185.002c.1 0 .202-.002.3.016.214.038.346.163.337.392-.01.228-.152.343-.367.37-.108.012-.218.007-.327.007-.702 0-1.403.011-2.104-.005-.259-.006-.324.087-.32.332q.017 1.311 0 2.622a.6.6 0 0 0 .198.481c.523.508 1.034 1.027 1.55 1.541.09.091.184.184.194.32.012.17-.057.304-.213.38-.18.086-.336.029-.47-.106-.484-.482-.977-.956-1.445-1.452-.198-.21-.37-.268-.662-.195a9.1 9.1 0 0 1-4.51-.018c-.2-.05-.335-.022-.481.13-.467.487-.948.958-1.427 1.432-.077.076-.16.152-.254.204-.152.083-.302.054-.425-.069-.123-.122-.156-.272-.075-.425.05-.094.126-.178.202-.254.488-.492.975-.983 1.47-1.466a.64.64 0 0 0 .216-.503q-.015-1.31 0-2.623c.003-.244-.067-.338-.325-.332-.719.015-1.439.005-2.158.005-.09 0-.183.004-.272-.011-.213-.037-.358-.161-.357-.382 0-.222.146-.355.36-.378.198-.022.4-.014.6-.014.574-.001 1.148.001 1.721-.002.087 0 .208.044.252-.047.048-.098-.074-.15-.133-.212-.189-.197-.385-.388-.577-.583a1.48 1.48 0 0 1-.44-1.081c.002-1.676-.004-3.352.002-5.027.003-.967.816-1.6 1.758-1.368.22.054.263-.005.265-.214.004-.543.278-.941.752-1.177.473-.234.96-.217 1.398.097.167.12.272.126.446.005.72-.5 1.681-.228 2.05.566.056.122.08.216.267.163 1.047-.297 1.864.33 1.879 1.443.011.902.002 1.803.002 2.704zm-2.588 1.048c-.123-.083-.192-.06-.259-.032-.528.22-1.016.147-1.458-.21-.112-.091-.178-.028-.26.03-.594.41-1.117.415-1.714-.006-.126-.088-.196-.067-.306.014-.363.268-.767.378-1.21.241-.197-.06-.244.016-.241.192.004.255-.003.51 0 .765.018 1.323-.142.922.755 1.845l.096.097c.326.336.485.731.48 1.207-.012 1.056 0 2.112-.007 3.168-.002.2.063.293.26.338a9 9 0 0 0 4.031.008c.22-.05.29-.157.288-.377-.01-.938.038-1.878-.016-2.812-.052-.914.227-1.618 1.01-2.113.268-.17.363-.431.36-.75-.01-1.01-.002-2.021-.005-3.032 0-.573-.272-.854-.85-.868-.41-.01-.82-.003-1.23-.004-.218 0-.437-.008-.651.051-.423.117-.642.632-.48 1.128.126.388.476.524.91.347.31-.126.63-.092.943-.057.218.025.328.19.338.403.01.218.007.437.002.655-.005.238-.122.398-.355.458-.904.229-1.422.836-1.674 1.702-.08.27-.132.548-.211.818-.06.206-.202.329-.428.296-.224-.033-.356-.189-.319-.402.148-.86.382-1.687 1.003-2.35.324-.346.726-.564 1.198-.75m-2.228-3.046c0-.564.005-1.128-.002-1.692-.004-.396-.228-.651-.57-.673a.624.624 0 0 0-.65.634q-.027 1.732-.002 3.465c.006.395.288.633.652.62.347-.014.567-.261.57-.662.006-.563.002-1.128.002-1.692m-3.217.733h-.001c0 .327-.006.655.001.982.009.369.22.612.539.636.348.027.628-.165.663-.538.067-.715.064-1.435.002-2.15-.033-.374-.304-.55-.67-.52-.324.027-.522.244-.532.609-.01.327-.002.654-.002.981m4.003-1.62-.001.846c0 .118.019.21.168.143.258-.117.531-.115.803-.103.183.007.266-.054.262-.248-.009-.49.001-.982-.006-1.472-.005-.371-.264-.64-.603-.645-.328-.004-.609.275-.621.634-.01.281-.002.564-.002.845m3.254.456h-.01c0-.154.01-.309-.003-.462a.59.59 0 0 0-.615-.56c-.343 0-.58.22-.604.567-.011.171-.005.344-.005.516q0 .364.353.367c.127.001.254.011.38.01.165-.003.352.204.466.063.087-.106.03-.33.038-.5M5.97 17.226c-.592 0-1.184.004-1.775 0-.741-.005-1.187-.451-1.191-1.197q-.008-1.53 0-3.059c.004-.754.441-1.174 1.192-1.186.338-.006.64.067.936.235.558.317 1.145.315 1.69-.013.39-.234.796-.25 1.213-.204.486.053.88.508.886 1.03q.02 1.665 0 3.331c-.007.61-.474 1.052-1.095 1.062-.619.01-1.238.002-1.857.002zm-.019-.786q.874.001 1.748 0c.375-.002.441-.068.442-.451q.002-1.475 0-2.948c0-.424-.146-.549-.57-.5-.13.016-.24.077-.352.139q-1.202.662-2.427.035c-.112-.058-.226-.123-.347-.155-.45-.116-.656.045-.656.504v2.866c0 .46.051.51.524.51zM22.634 28.003c-.61 0-1.22.003-1.83 0-.66-.004-1.112-.417-1.123-1.08a98 98 0 0 1 0-3.277c.009-.576.383-.979.95-1.063.375-.055.742-.022 1.08.184.608.371 1.225.37 1.836.012a1.6 1.6 0 0 1 1.159-.182c.538.107.883.511.887 1.057q.017 1.638 0 3.277c-.008.64-.46 1.064-1.102 1.072h-1.857m0-.75h1.692c.403-.002.484-.08.484-.475.002-.955-.011-1.91.005-2.866.01-.58-.155-.59-.667-.55-.093.007-.185.072-.271.12-.45.251-.927.355-1.442.316-.41-.031-.776-.172-1.13-.369-.494-.273-.846-.069-.846.476q-.001 1.46.002 2.92c.001.325.101.424.426.426.582.004 1.164.001 1.746.001M8.543 28.003c-.619 0-1.238.004-1.857-.001-.602-.005-1.038-.368-1.07-.974a32 32 0 0 1 .003-3.518c.025-.429.355-.792.769-.893.43-.104.849-.08 1.24.153.61.364 1.225.363 1.836.006.374-.218.771-.26 1.186-.173.503.106.845.514.847 1.03q.011 1.65 0 3.303c-.003.628-.442 1.06-1.07 1.065-.627.006-1.255.002-1.884.002m-.003-.75h1.637c.475 0 .543-.066.543-.53v-2.837c0-.512-.275-.69-.763-.491-.075.03-.146.073-.218.112a2.5 2.5 0 0 1-1.367.291c-.421-.023-.783-.197-1.16-.364-.432-.193-.895-.169-.861.501.047.953.01 1.91.013 2.864.001.352.103.451.458.452q.859.002 1.718.001" /><path fill="currentColor" d="M25.194 11.66a1.64 1.64 0 0 1-1.642-1.63c0-.89.749-1.63 1.647-1.63s1.647.747 1.642 1.636a1.64 1.64 0 0 1-1.647 1.623m-.855-1.622c.002.483.39.873.864.868a.884.884 0 0 0 .855-.884.85.85 0 0 0-.857-.837.834.834 0 0 0-.862.853M6.927 20.825c.001-.902.743-1.65 1.624-1.638a1.65 1.65 0 0 1 1.635 1.662 1.65 1.65 0 0 1-1.646 1.623c-.886-.002-1.614-.746-1.613-1.648m2.473.005a.853.853 0 0 0-.83-.864c-.465-.008-.881.39-.89.851a.864.864 0 0 0 .864.869c.498.003.855-.354.856-.856M22.621 22.472c-.885-.01-1.64-.78-1.625-1.659.014-.888.79-1.649 1.66-1.626.895.023 1.632.777 1.623 1.662-.008.886-.77 1.633-1.658 1.623m.872-1.639a.86.86 0 0 0-.859-.867.87.87 0 0 0-.859.874.85.85 0 0 0 .85.845.84.84 0 0 0 .868-.852M5.971 11.66a1.64 1.64 0 0 1-1.648-1.617c-.013-.892.746-1.647 1.655-1.642a1.65 1.65 0 0 1 1.633 1.635 1.64 1.64 0 0 1-1.64 1.623m.854-1.631c-.002-.496-.366-.849-.87-.844a.85.85 0 0 0-.85.846c-.001.473.4.878.864.875a.864.864 0 0 0 .856-.877" /></svg>
