<svg xmlns="http://www.w3.org/2000/svg" viewBox="0 0 32 32" fill="none"><path fill="currentColor" d="M26.262 5.399 9.98 2.524A1.5 1.5 0 0 0 8.242 3.74l-3.72 21.125a1.5 1.5 0 0 0 1.217 1.738l16.282 2.875q.131.024.264.023a1.5 1.5 0 0 0 1.474-1.24l3.719-21.125A1.5 1.5 0 0 0 26.262 5.4m.23 1.564-3.718 21.125a.5.5 0 0 1-.579.406L5.913 25.619a.5.5 0 0 1-.405-.579L9.227 3.915a.5.5 0 0 1 .578-.406l16.283 2.875a.5.5 0 0 1 .405.579m-3.474 2.433a.5.5 0 0 1-.579.405L12.064 7.97a.5.5 0 0 1 .174-.985l10.375 1.832a.5.5 0 0 1 .405.58m-.693 3.94a.5.5 0 0 1-.58.404l-10.37-1.831a.5.5 0 0 1 .174-.985l10.375 1.833a.5.5 0 0 1 .401.578m-5.875 3.023a.5.5 0 0 1-.58.405l-5.186-.916a.499.499 0 1 1 .174-.984l5.186.915a.5.5 0 0 1 .401.58z" /></svg>
