<svg xmlns="http://www.w3.org/2000/svg" viewBox="0 0 32 32" fill="none"><path fill="#00adef" d="M16.192 10.66a3.22 3.22 0 0 0 2.215.862c.185 0 .308 0 .43-.061 1.293-.185 2.462-1.108 2.77-2.4.246-1.108.062-2.154-.615-2.954-.739-.8-1.723-1.293-2.708-1.293-1.785 0-3.323 1.539-3.323 3.324 0 .984.43 1.846 1.23 2.523m1.784-4.307c.616-.062 1.231.061 1.662.43.43.37.677.862.677 1.478a1.917 1.917 0 0 1-1.908 1.907c-1.108-.184-1.846-.861-1.908-1.723-.123-.984.554-1.907 1.477-2.092M23.27 15.671a1.52 1.52 0 0 0-1.354-.308c-.43.062-.8.247-1.107.616l-.062.061-.061-.061-7.077-4.37c-.123-.061-.308-.123-.492-.061a.56.56 0 0 0-.431.185c-2.031 2.338-2.954 6.276-2.216 9.661v.062l-1.354 8a.39.39 0 0 0 0 .369c0 .123.062.184.185.246.062.123.246.246.492.246h1.6c.123 0 .308-.061.431-.123.123-.061.246-.184.246-.308v-.061l1.908-5.539.37.247.307 5.169c0 .184.062.369.246.492a.67.67 0 0 0 .43.185h1.6c.185 0 .37-.062.493-.185a.7.7 0 0 0 .185-.492l.554-7.385c0-.061-.062-.184-.062-.246s-.061-.062-.061-.123l.061-.062h-.061c0-.061-.062-.123-.062-.123l-2.215-2.83v-.062l.554-2.03c.122-.308-.062-.678-.37-.8a.56.56 0 0 0-.615 0 .82.82 0 0 0-.43.492l-.74 2.461c-.06.062-.06.185 0 .308 0 .123.062.246.124.246l2.4 2.954v.061l-.431 6.4h-.37l-.245-4.8c0-.246-.185-.553-.37-.615h-.061l-3.631-2.215v-.062c-.43-2.954.123-5.785 1.477-7.692l.062-.123.122.061 6.954 4.308v11.692c0 .431.308.739.739.739a.71.71 0 0 0 .738-.739V17.148c0-.062.062-.123.062-.185.123-.123.184-.123.308-.123a.7.7 0 0 1 .307.062c.062.061.185.184.185.369v.246c0 .185.061.246.123.37.061.061.246.184.554.184a.56.56 0 0 0 .492-.246c.123-.123.185-.37.185-.616 0-.676-.185-1.23-.616-1.538m-11.507 7.077 1.107.738-.061.062-1.723 5.046-.247-.061z" /></svg>
