<svg xmlns="http://www.w3.org/2000/svg" viewBox="0 0 33 32" fill="none"><path fill="#00adef" d="M25.209 23.296a1 1 0 0 1 0 1.412C25.073 24.84 21.852 28 16.5 28c-4.674 0-8.066-2.8-10-4.981V26a1 1 0 1 1-2 0v-6a1 1 0 0 1 1-1h6a1 1 0 0 1 0 2H7.43c1.54 1.919 4.695 5 9.07 5 4.5 0 7.267-2.683 7.295-2.71a1 1 0 0 1 1.414.006M27.5 5a1 1 0 0 0-1 1v2.981C24.566 6.8 21.174 4 16.5 4c-5.352 0-8.572 3.159-8.707 3.293A1 1 0 0 0 9.205 8.71C9.232 8.682 12 6 16.5 6c4.375 0 7.53 3.081 9.07 5H21.5a1 1 0 0 0 0 2h6a1 1 0 0 0 1-1V6a1 1 0 0 0-1-1" /></svg>
