<svg xmlns="http://www.w3.org/2000/svg" viewBox="0 0 118 116" fill="none"><g clip-path="url(#rupee_a)"><path fill="currentColor" d="M66.837 93.001H59.24a6 6 0 0 1-2.404-.479c-3.126-1.39-6.3-2.779-9.425-4.169-.192-.095-.433-.191-.625-.287-1.106-.575-1.539-1.63-1.106-2.635.433-1.007 1.49-1.438 2.645-1.007.913.336 1.779.767 2.692 1.15 1.972.863 3.944 1.677 5.867 2.636 1.202.575 2.404.766 3.702.766h14.426c1.202 0 2.116-.527 2.644-1.58.481-.96.385-1.87-.24-2.78-.48-.67-1.106-1.054-1.923-1.15-3.75-.575-7.55-1.245-11.3-1.773-1.202-.191-2.068-.623-2.933-1.485-4.328-4.264-9.521-6.756-15.676-6.756-6.3 0-11.396 2.635-15.628 7.044-.769.814-1.634 1.39-2.74 1.677-1.924.527-3.8 1.197-5.722 1.772-.77.24-1.058.527-.818 1.39 1.154 4.6 2.26 9.2 3.366 13.847.24 1.006.673 1.102 1.587.815 2.308-.815 4.664-1.534 6.972-2.348.914-.336 1.78-.336 2.74-.096 7.839 1.869 15.725 3.737 23.562 5.606 3.126.719 6.203.575 9.185-.671 12.357-5.079 24.667-10.11 37.025-15.189 1.827-.718 3.606-1.437 5.385-2.252 2.405-1.054 3.318-3.114 2.501-5.27-.77-2.108-2.885-3.019-5.338-2.3-6.731 2.012-13.463 3.977-20.195 5.99-.625.19-1.25.383-1.924.526-1.202.192-2.115-.335-2.404-1.341-.288-1.102.24-2.06 1.443-2.444 2.163-.67 4.327-1.294 6.491-1.964 5.145-1.534 10.242-3.067 15.387-4.6 4.568-1.342 8.8.67 10.338 4.935 1.443 4.073-.528 8.385-4.856 10.158-14.185 5.845-28.37 11.691-42.555 17.488-3.75 1.534-7.646 1.725-11.588.815-7.502-1.821-15.051-3.594-22.552-5.366-.818-.192-1.587-.192-2.404.095-2.068.719-4.136 1.438-6.203 2.061-1.106.335-1.491.766-1.106 1.916.432 1.39.72 2.779 1.057 4.169.289 1.389-.192 2.348-1.538 2.683-4.664 1.15-9.329 2.3-13.993 3.402-1.346.335-2.404-.336-2.645-1.485-.24-1.055.433-2.013 1.732-2.348 3.51-.863 7.068-1.725 10.578-2.588 1.539-.383 1.539-.383 1.202-1.868-2.26-9.343-4.568-18.639-6.78-27.982-.24-1.054-.673-1.246-1.683-1.006-3.51.91-7.02 1.725-10.578 2.587-1.49.383-2.549-.192-2.885-1.39-.289-1.101.48-2.108 1.875-2.491 4.424-1.102 8.848-2.156 13.32-3.21 1.875-.431 2.692.096 3.125 1.964.288 1.15.577 2.348.865 3.498.145.623.433.767 1.01.575l5.915-1.869c.48-.143.769-.527 1.106-.862 5.24-5.27 11.54-8.241 19.041-8.002 6.732.192 12.502 2.78 17.31 7.475.578.527 1.107.862 1.924.958 3.654.527 7.309 1.15 10.963 1.773 3.27.575 5.674 3.594 5.482 6.756-.192 3.402-2.597 6.037-5.963 6.468-.336 0-.673.144-1.057.144h-8.223z" /><path fill="currentColor" d="M11.3 84.185c.914.095 1.587.479 1.827 1.39a33 33 0 0 1 .914 3.736c.192 1.054-.481 2.013-1.539 2.3-.866.24-1.923-.24-2.26-1.198a16.8 16.8 0 0 1-.962-4.072c-.096-1.198.818-2.156 1.972-2.108zM85.024 36.029a.74.74 0 0 0 .744-.742v-2.512a.74.74 0 0 0-.744-.742H66.34a.74.74 0 0 0-.744.742v2.8c0 .412.33.742.744.742h5.374c1.736 0 3.059.618 3.844 1.73h-9.26a.74.74 0 0 0-.743.741v2.513c0 .412.33.741.744.741h10.044c-.413 2.266-2.066 3.707-4.712 3.707h-5.29a.74.74 0 0 0-.745.742v3.336c0 .206.083.412.248.535l10.417 9.598s.33.206.496.206h5.208c.703 0 1.034-.824.496-1.319l-9.549-8.773c4.837-.165 8.268-3.377 8.722-8.073h3.349a.74.74 0 0 0 .744-.741v-2.513a.74.74 0 0 0-.744-.741h-3.72c-.207-.742-.538-1.4-.91-2.019h4.63z" /><path fill="currentColor" d="M51 45.472C51 31.926 61.984 21 75.585 21 89.073 21 100 31.984 100 45.529S89.016 70 75.415 70C61.927 69.943 51 58.96 51 45.472m24.585-22.537c-12.406 0-22.593 10.073-22.65 22.423 0 12.52 10.073 22.707 22.48 22.707s22.593-10.073 22.65-22.423c0-12.52-10.073-22.65-22.48-22.707" /><path stroke="#00ADEF" stroke-linecap="round" stroke-width="3" d="M63.5 18.5v-10M87.5 18.5v-10M75.5 15.5v-14" /></g><defs></defs></svg>
