<svg xmlns="http://www.w3.org/2000/svg" viewBox="0 0 32 32" fill="none"><path fill="currentColor" d="m5.5 28.4 2.4-1.7 2.4 1.7c.2.2.5.2.8 0l2.4-1.7 2.4 1.7c.2.2.5.2.8 0l2.4-1.7 2.4 1.7c.2.1.5.2.7.1s.4-.3.4-.5v-8h4.6c.2 0 .3-.1.5-.2.1-.1.2-.3.2-.4V6.6c0-1.7-1.4-3-3.1-3.1H9.2c-1.3 0-2.4.5-3.3 1.3S4.5 6.7 4.5 7.9v20c0 .2.1.4.4.5q.3.15.6 0M22.3 6.6c0-1 .9-1.8 2-1.8s1.9.8 2 1.8v12.2h-3.9zM5.8 7.9c0-1.8 1.5-3.2 3.4-3.2h12.5c-.5.6-.7 1.2-.7 1.9v20.1l-1.7-1.3c-.2-.2-.5-.2-.8 0l-2.4 1.7-2.4-1.7c-.2-.2-.5-.2-.8 0l-2.4 1.7-2.4-1.7c-.2-.2-.5-.2-.8 0l-1.7 1.3zM8 10.8H6.9V9.5h3.5v1.2H9.3v3.1H8zm4.3 1.9h1.3v1.2h1.3v-2.5c0-1-.9-1.8-1.9-1.8s-1.9.8-1.9 1.8v2.5h1.3v-1.2zm.7-1.9c.4 0 .7.3.7.6v.1h-1.3v-.1c-.1-.4.2-.6.6-.6m2.7 2.4 1.2-1.5-1.2-1.5 1-.7 1 1.2 1-1.2 1 .7-1.2 1.5 1.2 1.5-1 .7-1-1.2-1 1.2zm-7.7 3h10.8v1.2H8zM8 19h10.8v1.2H8zm0 2.7h5V23H8z" /></svg>
