<svg xmlns="http://www.w3.org/2000/svg" viewBox="0 0 24 25" fill="none"><path fill="#00adef" d="m17.54 13.353-1.755-1.283a1.23 1.23 0 0 0-.919-.222c-.326.05-.61.225-.806.492l-.542.743-.018.027c-.083.012-.521.02-1.57-.815l-.113-.08c-1.097-.729-1.221-1.147-1.236-1.233l.02-.026.543-.744c.4-.548.282-1.322-.27-1.725L9.089 7.183a1.233 1.233 0 0 0-1.725.27l-.548.753a2.8 2.8 0 0 0-.37 2.56c.435 1.265 1.528 2.602 3.259 3.977q.045.051.104.095.063.045.127.089l.124.094q.06.045.122.072c1.837 1.226 3.444 1.863 4.783 1.89h.056c.875 0 1.71-.43 2.238-1.155l.548-.753c.195-.267.272-.593.222-.919a1.2 1.2 0 0 0-.489-.803m-.688 1.025-.549.753c-.314.43-.818.676-1.312.667-.8-.018-2.2-.35-4.35-1.829-2.066-1.6-2.81-2.83-3.07-3.585a1.63 1.63 0 0 1 .204-1.476l.548-.753a.05.05 0 0 1 .068-.012l1.787 1.304c.02.015.027.048.012.068l-.519.709a1.13 1.13 0 0 0-.272.832c.047.685.622 1.387 1.742 2.131l.068.05c1.07.854 1.915 1.189 2.582 1.026.358-.09.592-.311.708-.513l.518-.708c.015-.018.05-.024.069-.012l1.757 1.283c.018.01.02.045.009.065" /><path fill="#00adef" d="M12.256 2.143c-5.372 0-9.746 4.37-9.746 9.746 0 2.264.785 4.445 2.216 6.188L3.082 21.28a.591.591 0 0 0 .696.839l4.49-1.334a9.6 9.6 0 0 0 3.985.85c5.373 0 9.747-4.37 9.747-9.746 0-5.375-4.371-9.746-9.744-9.746m0 18.305c-1.289 0-2.53-.279-3.683-.833a.6.6 0 0 0-.424-.033l-3.375 1.005 1.191-2.323a.59.59 0 0 0-.086-.667 8.55 8.55 0 0 1-2.184-5.708c0-4.72 3.84-8.561 8.561-8.561s8.559 3.84 8.559 8.561c0 4.72-3.838 8.559-8.559 8.559" /></svg>