<svg xmlns="http://www.w3.org/2000/svg" viewBox="0 0 37 36" fill="none"><path fill="currentColor" d="M5.067 5.016c-.011.017.886 1.271 1.988 2.78l5.206 7.134 3.201 4.386-.205.238c-.116.13-2.47 2.736-5.228 5.788C7.271 28.401 5.006 30.921 5 30.95c-.01.028.47.051 1.163.045l1.18-.005.388-.437a6412 6412 0 0 0 8.667-9.607l.139-.165 1.107 1.52c.61.835 2.288 3.139 3.727 5.114L23.997 31h4.015c3.34 0 4.01-.011 3.988-.074-.017-.045-1.036-1.452-2.266-3.138-1.23-1.68-2.636-3.609-3.123-4.279-.493-.67-1.939-2.66-3.224-4.414-1.285-1.76-2.337-3.223-2.337-3.246 0-.04 6.79-7.593 9.1-10.118l.659-.72h-1.213l-1.207.005-1.413 1.566c-.775.863-2.675 2.974-4.225 4.682l-2.808 3.11-3.407-4.665-3.411-4.67L9.11 5.01C6.9 4.993 5.078 5 5.067 5.016m9.514 5.028c1.313 1.804 3.34 4.58 4.503 6.174 1.163 1.588 3.744 5.13 5.738 7.859l3.672 5.039c.033.051-.36.068-1.795.068h-1.833l-3.633-4.982C12.848 12.722 8.617 6.922 8.567 6.838c-.033-.052.343-.069 1.789-.069h1.833z" /></svg>
