<svg xmlns="http://www.w3.org/2000/svg" viewBox="0 0 32 26" fill="none"><path fill="#00adef" d="m21.124 12.063-6.75-4.5a1.125 1.125 0 0 0-1.749.937v9a1.126 1.126 0 0 0 1.75.937l6.75-4.5a1.126 1.126 0 0 0 0-1.874m-6.249 3.335v-4.789L18.472 13zM30.953 4.776a3.38 3.38 0 0 0-2.038-2.306C24.095.608 16.422.625 16 .625S7.906.608 3.085 2.47a3.38 3.38 0 0 0-2.038 2.306C.683 6.18.25 8.745.25 13s.433 6.82.797 8.224a3.38 3.38 0 0 0 2.038 2.307c4.618 1.782 11.846 1.844 12.822 1.844h.186c.976 0 8.208-.062 12.822-1.844a3.38 3.38 0 0 0 2.038-2.307c.364-1.407.797-3.969.797-8.224s-.433-6.82-.797-8.224m-2.179 15.89a1.13 1.13 0 0 1-.67.773c-4.451 1.718-12.021 1.687-12.094 1.687H16c-.076 0-7.64.028-12.094-1.687a1.13 1.13 0 0 1-.67-.772C2.893 19.383 2.5 17.017 2.5 13c0-4.018.394-6.383.726-7.66a1.13 1.13 0 0 1 .67-.777C8.188 2.905 15.38 2.875 15.97 2.875h.038c.076 0 7.647-.025 12.094 1.688a1.13 1.13 0 0 1 .67.772c.335 1.282.729 3.647.729 7.665s-.394 6.383-.726 7.66z" /></svg>
